/* XPM */
static char *_5f89e5316504406af75731cf346c945RUNm3FisExLivlV4[] = {
/* columns rows colors chars-per-pixel */
"64 64 226 2 ",
"   c #1D242B",
".  c #1C3623",
"X  c #24272E",
"o  c #243329",
"O  c #252532",
"+  c #292634",
"@  c #262B33",
"#  c #2A2B35",
"$  c #2C2D3A",
"%  c #332C3B",
"&  c #2B3335",
"*  c #2D333C",
"=  c #2E383D",
"-  c #253832",
";  c #32333E",
":  c #33393D",
">  c #1A5B1B",
",  c #09720C",
"<  c #186C1C",
"1  c #137715",
"2  c #0E6A10",
"3  c #1B5E22",
"4  c #234A29",
"5  c #275A2D",
"6  c #2C4738",
"7  c #33483B",
"8  c #2A5836",
"9  c #31573C",
"0  c #1E6822",
"q  c #1D7824",
"w  c #226524",
"e  c #236928",
"r  c #227328",
"t  c #337735",
"y  c #2F6837",
"u  c #372F45",
"i  c #343542",
"p  c #343B43",
"a  c #3A3C46",
"s  c #3B3D49",
"d  c #383946",
"f  c #2E3641",
"g  c #423E4C",
"h  c #364345",
"j  c #3B4247",
"k  c #3C434B",
"l  c #3E494E",
"z  c #384A46",
"x  c #3A5948",
"c  c #3E4550",
"v  c #3E4A52",
"b  c #386545",
"n  c #3D7744",
"m  c #41444E",
"M  c #414B4D",
"N  c #43584D",
"B  c #424651",
"V  c #444B53",
"C  c #494C56",
"Z  c #474E58",
"A  c #4B4E59",
"S  c #494659",
"D  c #524F59",
"F  c #465156",
"G  c #495256",
"H  c #46525A",
"J  c #4C535B",
"K  c #4E5A5E",
"L  c #465B55",
"P  c #51555E",
"I  c #515B5F",
"U  c #41654A",
"Y  c #4E625D",
"T  c #486455",
"R  c #54635E",
"E  c #4B7253",
"W  c #4E5661",
"Q  c #4F5C61",
"!  c #535661",
"~  c #555E65",
"^  c #535D63",
"/  c #595E66",
"(  c #555D69",
")  c #5B5D6A",
"_  c #5F556E",
"`  c #5B5F72",
"'  c #514762",
"]  c #605B62",
"[  c #4E6263",
"{  c #4E656D",
"}  c #536164",
"|  c #566165",
" . c #556165",
".. c #556165",
"X. c #586266",
"o. c #596266",
"O. c #556966",
"+. c #566268",
"@. c #556369",
"#. c #596269",
"$. c #596569",
"%. c #5A636A",
"&. c #55696D",
"*. c #5D696E",
"=. c #5D6B71",
"-. c #5A6A74",
";. c #5F7175",
":. c #5D706A",
">. c #626E74",
",. c #626673",
"<. c #64747A",
"1. c #6A757C",
"2. c #65777A",
"3. c #60706D",
"4. c #168917",
"5. c #149415",
"6. c #199516",
"7. c #1A9A15",
"8. c #159419",
"9. c #1B951C",
"0. c #169A19",
"q. c #1B9A1C",
"w. c #159C16",
"e. c #169110",
"r. c #209C1F",
"t. c #22931D",
"y. c #1BA11D",
"u. c #1FA91E",
"i. c #1D9422",
"p. c #1D9B21",
"a. c #189824",
"s. c #188C21",
"d. c #229523",
"f. c #239B24",
"g. c #289C2A",
"h. c #36953A",
"j. c #28872A",
"k. c #1CA424",
"l. c #22A323",
"z. c #2CAD2B",
"x. c #26A927",
"c. c #2DB32E",
"v. c #29B726",
"b. c #32B52E",
"n. c #33BF2B",
"m. c #32AC35",
"M. c #2EB533",
"N. c #33B433",
"B. c #35BA35",
"V. c #39BC3A",
"C. c #39B837",
"Z. c #41903D",
"A. c #41B339",
"S. c #3DC63D",
"D. c #3EC93D",
"F. c #34C232",
"G. c #41C63F",
"H. c #41CA3E",
"J. c #3A8044",
"K. c #3CBE44",
"L. c #559858",
"P. c #488E4B",
"I. c #55AD55",
"U. c #67807A",
"Y. c #5FA963",
"T. c #5EB860",
"R. c #67A969",
"E. c #66B767",
"W. c #73B677",
"Q. c #3EC940",
"!. c #3FC540",
"~. c #42C642",
"^. c #43CB42",
"/. c #4ACA4C",
"(. c #47D546",
"). c #52DF4F",
"_. c #54CD55",
"`. c #57D658",
"'. c #4EE44E",
"]. c #52E44E",
"[. c #4FE751",
"{. c #53E553",
"}. c #53EA54",
"|. c #56E759",
" X c #59EB5A",
".X c #59E65A",
"XX c #6CC76A",
"oX c #67DA68",
"OX c #71CA71",
"+X c #72CE73",
"@X c #5DE262",
"#X c #67E66A",
"$X c #7AE47C",
"%X c #7CEC7D",
"&X c #78E778",
"*X c #73EC73",
"=X c #85EC7F",
"-X c #717E83",
";X c #6B7F80",
":X c #6E8288",
">X c #748185",
",X c #76898C",
"<X c #7EEB81",
"1X c #808D93",
"2X c #89D789",
"3X c #85E684",
"4X c #84EB85",
"5X c #89EC85",
"6X c #89E68A",
"7X c #85EB8A",
"8X c #8AEA8B",
"9X c #89E687",
"0X c #89F388",
"qX c #98EB97",
"wX c #98F39A",
"eX c #8DEC93",
"rX c #A0EF9E",
"tX c #9FF2A4",
"yX c #A3F6A3",
"uX c #ACFDA6",
"iX c #ACFDAC",
"pX c #A6F9A5",
"aX c #ADFCB1",
"sX c #B2FCB3",
"dX c #B2FBB6",
"fX c #B0FDAF",
/* pixels */
"V P / I K F K ^ ....O.^ ^ X.X.^ ) W $ s ! ^ ..} Y ..G @ k K #.@.^ W W J W W B s d C F J ^ / | ..| ^ ..^ V * * A ;X,X2.K p l X.~ ",
"C J ^ / $.^ J V ..*.$.;.*.O.^ *.B V s B / ~ ....~ ^ ^ J B * s %.+.W J W W s p F %.^ G P X.| | ..I | | ..^ B f + z v J J K ^ #.^ ",
"V C I ^ ..^ ~ ~ F K Q 2.,X$.h k K W J C K ^ ~ ..X...^ ^ ^ P s $ K ;X>.v p B ^ ~ ^ ^ I ..X.^ R o.o...^ ..~ J s O # a C ( o.....} ",
"^ I K I ^ / +.~ $.Q v v F p p K ....~ I K ~ ^ ^ ^ X.+.$.^ #.C s * a s k J X.X.^ X.X.^ ..X.| ..I } ^ X.X.P J B i i C D P I ^ } } ",
"^ ^ K ^ ^ I ! J ^ ^ K J B d j P I } R O.I I X...I J W +...#.P P J k p M ^ ..I ^ ^ ^ ..^ ......I } ....K B F K V F I F Z I ....^ ",
"~ #.....I I K K A J ~ $.#.~ A m K I ^ o...K ..^ F Z K ^ ^ ^ ^ ^ ..$.I j h V ^ X.F Z ^ ..^ ..^ +.$.W J Z V K #.+.X...K K K J ~ X.",
"#.#.^ ....o...^ I I ..^ I ^ ^ P Z J I ..X.o...^ X.J C J W K W +...^ ..o.K B k V W J W P ^ X.} ^ O.J J ( / ~ #.+.^ } ^ ^ J V K ) ",
"; v K $.} ..^ ..~ ~ ^ } O.} } ../ J J V K o.^ ..^ %./ P A ~ ^ [ O.^ ....^ ) ^ c p B ) ( K ^ W J ~ ! ^ ~ ~ ..+.Q | ..^ / ^ J J Z ",
"j i p V *.+.( +.^ | ......^ ../ ~ #.( k ; V K | X.I o.X.~ ....^ +.+.Q } O.~ ..^ m d A ,.J B J +.......^ ^ ....^ Y X.^ $.~ J d + ",
"J ~ J p k ^ &.} } ..} ^ ^ ..$.} %.O.k * p A M V ^ ^ } K ^ } Q +.Q ..$.^ ^ ^ ....%.s ; m J ^ +.~ I I ^ ......^ ^ ..o.K ^ J p # % ",
"J ^ ~ ~ F k k W &.=.&.$.+...$.{ M B V C ^ %.K j : V / P J ....^ ..^ ^ ..^ ^ ~ ^ J M Z I ^ ^ ..~ ..I K I ......../ %.P p O * C C ",
"J ^ ~ ..~ ) Z p p $.:X,X:X<.I : V V ^ %.~ #./ Z V * ; m J #.*.( I O.^ K K ) *.K J K X.$.X...^ ../ ..| X./ I ^ ..P m # @ F I I J ",
"Z K ^ #.^ ! A A s d v &.&.v j m ^ $.| I ^ ^ P J B % # + $ V %.>.$.Q K ( ~ J W +.X...^ I ......} ^ ^ K ~ ....^ K ; # a K X.I X.I ",
"Z V F J A J A V J k ; i j V P / I ..| ^ X.~ ~ B u s V V j @ i %.>X>X+.v k W #...^ ~ ....^ ....^ X.^ K ^ ^ J i   @ C ~ ^ X.......",
"^ C C F Z V C S B s i g C P ......I o.o.I ^ X.j p I X.K } N X   z z = & V | o.I ..^ ..........~ ^ J m s k m B M j I o.$.I } ..I ",
"^ ~ ~ J V V J B $ i j C I ..o.I ..X.R I | ^ ^ m & G K x x z - o - - . o z L Y O.X.^ ..#.^ ^ X.X.#.J p i V / ^ J F J G K } ....X.",
"} } ~ Z J J i V F P J I I X...../ R Y Y ( _ J 4 w t h.h.h.Z.j., 1 , 1 2 2 < r r E :.@.%.%.&.;X&.C p k K X...I ^ F F j V X.&.$...",
"*.1.>.B k B B ^ $.X.^ ....o.} I ) R Y ..#.x b R.2X2X8XeX6X9XoXm.8.q.q.6.9.9.9.g.j.b [ Q W ' B h k J ~ +.^ ....I ^ ~ F B V Z ~ >.",
"p =.#.h j W %.+.^ ..^ K I ^ ..o.~ Q X.J 9 L.qXdXwXeX5X9X3X<X#X(.l.0.5.q.9.6.r.z.V.a.3   u = = / $.#.+.^ K ..$...^ ..| P V c M A ",
"v a * k ^ #.Q } ....W F ^ ....I } #.J 9 R.yXiXiX7X8X9X3X%X@X[.}./.z.d.d.d.9.f.x.C.B.z.5 - z ..^ ^ Q ^ $...^ I ~ ..I X.^ J A B V ",
"( J k p B ..I } ^ ..~ F K I ^ ^ O.[ x W.pXpXsXyX7X4X8X5X*X}.}.'.}.(.k.6.i.q.9.r.b.N.C.z.< 6 B ^ ..$.o...I ^ ~ +...K ~ ^ A A V A ",
"/ ~ X.K V V M ^ ~ #.^ F Q o.O.3.3.U OXiXiXsXsXrX4X7X3X#X.X}.}.}.}.}.Q.x.8.q.f.l.v.V.V.n.c.r . ; K ^ / ^ ^ ^ ^ ~ Y ^ K J Z A V C ",
"..^ ..$.~ J l k K ( &.-X1X>XY L y W.iXiXdXdXyXwX3X0X%X@X.X}.]. X{.{.}.(.k.6.t.9.N.b.N.C.F.m.q . X : Z ^ #.I F J ~ I V V W ^ ~ ~ ",
"^ $.^ ^ ~ / / m # * i H H h o : XXsXdXaXsXfXiX8X5X&X#X}.[.[.}.}.}.|.|.[.D.x.8.f.l.C.C.N.M.B.m.q j p # = Z ^ ^ P ~ X.J W #...^ ^ ",
"$.K ..O.I ....J c s f % % # 4 E.fXiXiXiXsXsXpX7X*X#X.X}.}.}.}. X{.}.]. X XH.l.7.f.V.C.N.B.V.V.m.r x G : u u B ^ +.#.W J ....^ ..",
"^ ....^ ~ #.^ J A d % d M 9 W.aXsXsXfXsXdXaXwX7X#X.X{.{.}.[.[.].{.}.[.'.].}.S.y.q.c.B.N.B.N.C.N.m.y T C i s s j J K K Q ^ ..X.Y ",
"~ ..I ..~ ~ J A a # a K x L.pXsXsXsXsXsXdXaX8X*X|.|.}.}.}.}.}.}. X}.}.}.}. X{.D.l.z.N.V.B.B.V.C.V.g.y M I I ! h i p F W ^ #.$.^ ",
"+.#...#.K ^ M @ : F K L E rXuXsXsXsXdXfXaXpX&X.X[.}.}.|.].{.{.|. X'.}. X{.[.}.{.C.b.b.B.N.N.B.N.c.F.j.x Y Y $./ J * f Z ( $.#.&.",
"*.&.#.*.B * p V I ~ %.U R.pXwXpXyXrXpXyXyXeX`.'.[.[.].).).{.{.].).].].].{.].{.).`.F.N.M.z.z.c.z.b.v.x.w ~ X.Y ) ~ ~ ^ p * k Q ;X",
"K / c * p k ~ ^ I ) ) U P.eXeX3XeX9X8X8X8X$X`.Q.Q.Q.D.H.H.G.H.H.G.^.H.S.H.^.H.^.(.x.q.0.q.r.q.q.d.q.6.5 ) ( T ` ~ ~ ..~ J h $ c ",
"s Z a # k Z ..~ ] / ^ R 9 R.wX<X9X5X4X3X9X4XoX/.Q.D.H.D.H.H.H.^.H.^.H.S.H.D.H.^.B.y.0.9.9.f.q.q.9.t.< x *.K Y o.#.^ ^ ^ ) K i p ",
"~ ) ! V A B $.X.{ R / ..Y t XX7X6X8X4X5X8X8X<X`.^.~.^.^.H.G.G.^.H.H.^.^.~.^.H.S.x.0.q.q.q.q.9.9.6.4.8 ` ~ R $.K I } $.I G C Z ) ",
"....^ ^ J c c J &.[ Q X./ U J.+X7X7X5X<X<X8X7X&X/.^.D.^./.~.^.D.G.^.H.H.Q.^.^.M.q.8.q.7.7.f.d.w.1 5 W ) / } ^ / [ ^ ( ( C B J Q ",
"..^ ^ #.$.! s * D ..*.{ ;.:Xb P.$X6X7X4X8X4X4X7XoX^.H.H.G.^.~.^.^.H.^.D.^.^.B.l.f.q.5.q.9.9.f.4.e N ! ( } O.O.^ ! K ^ O.^ ^ P F ",
"^ ..~ ^ J J Z V g & h &.-X<.h 7 P.5X4X8X9X3X8X3X%X_.^.H.D.^.^.^.^.D.^.~.^.~.z.0.t.q.p.p.q.w.4.w P ( C J I K K F # j ^ $.[ } #.! ",
"G J ^ ~ ^ ^ ~ I P P k c d i V Q b L.7X4X8X5X5X5X0XoX/.~.G.D.^.~.^.Q.Q.^.~.B.k.q.q.6.f.6.0.6.e L %.) K F V m g a # % k +.%.^ ~ / ",
"o.I I ^ I X.#.^ Q ^ W ! g + m ^ $.b Y.=X%X7X3X5X6X4XoX~.D.D.^.~.Q.Q.Q.^.S.l.q.q.0.p.9.r.9.e x ( ( $.O.Z i g P I ~ s # ; A #.=.%.",
"o.O.X.X...^ ^ / @.^ X.~ G j ; * F W b E.%X7X8X4X4X8X&X_.~.^.D.~.Q.^.^.~.b.6.q.9.i.9.q.5.w L ,.} $.M k c S ) o.[ ^ J B u O i Q <.",
"I ....^ | X.....( C J C J B g B # s H b E.6X8X9X4X7X7XoX/.^.H.~.~.^.~.C.l.8.q.q.d.8.s.r x %.,.O.V j C ( W L F J J V Z A s $ p v ",
"M ^ ........^ ^ I J C B A A A B C : ; i 8 T.=X9X4X6X8X<X`.D.^.!.^.~.Q.v.5.q.p.q.6.9.q E 2.J = j W +.^ ^ Q F C ' V Z Z v Z A B + ",
"$ p B ! #.#.^ } I / G C A C C S A Z C S @ 6 T.=X5X8X6X6X&X/.S.~.^.G.b.l.0.w.r.9.8.e 7 ;.%.u m L #.~ ..K ~ #.A C C C Z V A J B % ",
"C J k ; V #.&.+.{ $.P C A C Z Z V J a s # o 5 R.%X9X6X8X=XoX~.~.Q.K.x.5.0.i.9.q.0 4 & v J B D J #.^ ..} ..~ C C Z S C C A m k i ",
"( ) C j k k V >.O.Q } Z V J c W ! G * O u C o 4 I.9X0X=X4X<X_.G./.z.0.a.6.p.s.2 7 ; c Q } I D ! ! ~ ..+.~ K Z V A S C d i l ^ ^ ",
"#...J F ^ K V F J =.2.=.%.&.) B i O : K / ) C z 8 L.&X=X3X6XoX(.C.k.5.i.r.4.> o k S ) %.Y / / ( ^ ..~ ^ K Z Z A B C ; O $ W Q } ",
"Q ..#.~ ^ ( ^ J ; V *.1.2...d + ; A X.+...^ X.I J 8 P.$X4X4X=X_.l.9.9.w.4.> 7 J Q ) ) Q K } X...~ ..^ ^ ) ^ K A a + + i i $.>.[ ",
"O.^ ..#.^ ^ +.( ~ V * m s O ; * J #.^ O.} } O.~ &.^ x P.+X0X4X+Xk.8.6.4.5 z ^ { } } ^ $.*.} ..Y ~ ^ ..$.#.K k s i d A ( B J 1.=.",
"^ ~ / J A K ~ X.*.V a % d B Z F Z ^ ( %.K ^ ^ ^ Q +.~ U t E.2XXXa.d.< 4 N } } } Y O.} I ( X.| I ....#.J Z l i * + A #.^ F @ i J ",
"^ / J M F ! ^ ^ j O $ m ~ / ^ I V A ! C ^ +.~ #.^ ..^ ..K y K.I.4.0 6 p F } o.] ) ..^ ../ ^ I X.....W p s ~ ^ P B s c -.} = B ~ ",
"&.O.&.{ ..~ V i O * Z ^ ..} ^ ^ A J J A J I ....Y } ..^ V p z U x I I F k k J #.( W ( Q O.Q $.*.<.c i F ~ ....} ~ k ; J m k #.^ ",
">.<.>X>XO.: O $ s J ....} ....K J I ^ #...I ^ $.#.#.^ s X m O.Y ..R ..X.W Z k l @.Q %.-.@.$.*.^ s s Z ..~ ^ ....Z A C m i + c #.",
"i d s * X ; B P J ~ / ..K I ^ I K %.%.^ ^ ^ ^ Q ) s $ s u J ^ } I R X.^ #.#.~ V k v ( -X1.c * F Z F K ..~ #.~ J M C P C P m $ s ",
"+ # i ; g G / ^ ( ~ ^ X.} ^ ^ / ^ ^ I ~ &.%.^ J d $ s ! s A ..^ X.I ..^ ..^ ..X.+.V z F v V C ~ ~ ^ ^ ~ ^ ~ K J I J ~ ^ / ~ k k ",
"c i * s J %.O.....o.......X.X.~ #./ / V # f B K A V = i Z / / ../ ^ X.~ ..K I ..^ +.^ F p v I #...+.( ^ J W ~ ^ } } $.X.^ ^ } ^ ",
"W B i i B ! ^ ..| ..I ^ ..R ~ ..^ ^ J a ; B ) ^ ~ #.W h h V ^ I ( X.X.I | o.X.I ~ $.~ +.^ V p B ^ ~ ^ J K +.X...} ..} } ..^ ^ ~ ",
"} W A k s s B X.X.........) ~ +.+.K V m m V J #.~ ..$.^ J ; a ~ X.o.^ ..O.^ J #.o.K ..$.~ ^ J k k V F J ^ ^ ^ } I O...^ ^ K J ~ ",
"} +.~ D D S k Z K $.$.^ ..&.@.W F Q ~ P ( K Z K / ~ ^ } ~ S m a F o...} I I J ~ ..} ..Q X.~ ~ ^ W B k V ^ ^ ^ } / ~ / ( J A B C ",
"} +.^ X.X.I ^ F * B =.1.*.H v v ^ I ..| ......I ^ K J C A A V d O k J ~ ..W Z I } O.I %./ | ..P ^ ( P B c H ( *.O.K K ! A ( ( A ",
"^ ..^ ~ ^ ..$.^ P l j H K F J O.....X...^ I I ..~ ~ ~ V C C k $ B J c f k J J J K ..^ / ..I I ~ A P ~ A f O d ^ 1.>X#.B i p J V ",
"^ X.$...^ } } } %.m p J ( ^ } *...^ ^ ^ | ..| X.+.W +.K c d k J ! X.^ j B k m C $.^ $.Q K O.O.J P C : O O p p # j m # * Z J &.~ ",
"^ ^ } } } ..W ^ m a V ^ $.+.^ ^ } ......o...I ..^ ^ ^ p p K ~ ^ ~ ~ ^ P ~ J k p v W *.} ;.;...^ B ; # m / ^ C V a @   * ! ~ K ..",
"$.[ } ..*.) B s j C ~ ^ ^ ^ +.+...$.+...^ I ^ X.~ k j B ^ ..^ $...I K W } #.J c * k X.-X,X2.J @ O j ^ ~ ....#.~ P ; # $ A ~ ^ K ",
"$.;.<.( V a s A J J J J J J W ^ W ^ ^ ~ *.~ Z j * p W +.o.^ ^ ....K K +.^ +.^ ) ( s * V } p @ a J } X.} ^ ....^ %.( Z d * $ B ^ ",
"%.#.B ; i B K $.o...^ ..I ~ I K W ^ J K ) / j + @ a ^ ..o...X.^ ~ J J $.X.I } ^ ) ! d f f z J ( X.^ I ^ O.....^ / X.^ #.J d $ + ",
"c B # X s ~ =.} } ^ ..../ ^ / ~ #.K d # p C P P m a k J X.^ ..^ ~ K ..^ } } *.I A i + i A ^ V ! ~ ~ O...} I ^ ..} I K ^ +.! $ + "
};
