/* XPM */
static char *U2NyZWVuc2hvdCtmcm9tKzIwMjMtMDItMjIrMTUtNDQtNDktbG9nbyUyODYlMjktbG9nbw__[] = {
/* columns rows colors chars-per-pixel */
"64 64 239 2 ",
"   c #071B1C",
".  c #17191C",
"X  c #130F07",
"o  c #2C1403",
"O  c #2C1A0A",
"+  c #281706",
"@  c #321807",
"#  c #2E1A12",
"$  c #1E201A",
"%  c #372617",
"&  c #2D2616",
"*  c #1A1C24",
"=  c #0A1C24",
"-  c #261C2B",
";  c #1A242A",
":  c #1B2B34",
">  c #1D3335",
",  c #1F343A",
"<  c #0C2428",
"1  c #25272A",
"2  c #242B34",
"3  c #2A2B35",
"4  c #2D2D39",
"5  c #262A36",
"6  c #312D3A",
"7  c #23333A",
"8  c #2C343C",
"9  c #26363A",
"0  c #32343D",
"q  c #35393B",
"w  c #312F27",
"e  c #43260B",
"r  c #492B14",
"t  c #4C3216",
"y  c #5B3917",
"u  c #52300D",
"i  c #663A0D",
"p  c #643A15",
"a  c #643C19",
"s  c #683A17",
"d  c #713D16",
"f  c #573924",
"g  c #41332D",
"h  c #663E21",
"j  c #31403E",
"k  c #65421B",
"l  c #6B451C",
"z  c #654318",
"x  c #74451C",
"c  c #744A1D",
"v  c #7C4C1D",
"b  c #78451A",
"n  c #7B511D",
"m  c #5C442E",
"M  c #674627",
"N  c #744C23",
"B  c #7C4D23",
"V  c #764A26",
"C  c #7D5123",
"Z  c #7C522B",
"A  c #765227",
"S  c #644732",
"D  c #7C5532",
"F  c #2E3D42",
"G  c #2B3A44",
"H  c #343641",
"J  c #343C44",
"K  c #3A3C45",
"L  c #3A3C48",
"P  c #3E3E56",
"I  c #463C49",
"U  c #2C4249",
"Y  c #35444A",
"T  c #3B434B",
"R  c #394349",
"E  c #384A55",
"W  c #334E5A",
"Q  c #335765",
"!  c #2F5366",
"~  c #3B6273",
"^  c #42444D",
"/  c #43474A",
"(  c #444652",
")  c #444B54",
"_  c #4A4C55",
"`  c #4A4E59",
"'  c #454D59",
"]  c #465155",
"[  c #455359",
"{  c #4C535B",
"}  c #4D5A5D",
"|  c #4C5456",
" . c #52545C",
".. c #525B5F",
"X. c #555957",
"o. c #514F5C",
"O. c #6C5B4A",
"+. c #57635E",
"@. c #6A655A",
"#. c #776751",
"$. c #4E5C62",
"%. c #4A5A66",
"&. c #545D63",
"*. c #595D65",
"=. c #555A67",
"-. c #574960",
";. c #4D6366",
":. c #546265",
">. c #596265",
",. c #566269",
"<. c #5A636A",
"1. c #56696C",
"2. c #5A6872",
"3. c #506A74",
"4. c #62686B",
"5. c #636E75",
"6. c #626773",
"7. c #67767B",
"8. c #757B79",
"9. c #824C1A",
"0. c #86521D",
"q. c #814D23",
"w. c #825324",
"e. c #8A5424",
"r. c #835529",
"t. c #845A2C",
"y. c #8B5B2A",
"u. c #895827",
"i. c #915D2C",
"p. c #945C26",
"a. c #885D32",
"s. c #915E31",
"d. c #8D622B",
"f. c #9C642D",
"g. c #96652D",
"h. c #8C653A",
"j. c #9B6532",
"k. c #9C6B33",
"l. c #9B6C3D",
"z. c #956635",
"x. c #9D723D",
"c. c #A46B2E",
"v. c #AB6D2E",
"b. c #A4662B",
"n. c #A8712F",
"m. c #A56D34",
"M. c #AB6E33",
"N. c #A36D3A",
"B. c #AA6E39",
"V. c #A16537",
"C. c #A57135",
"Z. c #AA7135",
"A. c #A5743B",
"S. c #AA743B",
"D. c #A5793D",
"F. c #AA793D",
"G. c #A57837",
"H. c #B47B3C",
"J. c #BB7D3D",
"K. c #B57538",
"L. c #B36E2A",
"P. c #C27E3B",
"I. c #8B6945",
"U. c #956B43",
"Y. c #9A6D42",
"T. c #966A47",
"R. c #9C7346",
"E. c #856A52",
"W. c #A37443",
"Q. c #AA7642",
"!. c #A57A42",
"~. c #AB7A42",
"^. c #A67749",
"/. c #B37B43",
"(. c #BC7E41",
"). c #B47743",
"_. c #A3754A",
"`. c #817B7D",
"'. c #C17E41",
"]. c #BC823E",
"[. c #B6813B",
"{. c #C2833E",
"}. c #BC8243",
"|. c #B68247",
" X c #B68352",
".X c #C28242",
"XX c #C48345",
"oX c #4F7788",
"OX c #6E7D87",
"+X c #837C83",
"@X c #7B8D95",
"#X c #758D9B",
"$X c #7B8D9B",
"%X c #768A96",
"&X c #6B949C",
"*X c #74939C",
"=X c #7B939B",
"-X c #7B9395",
";X c #72888B",
":X c #5B95AA",
">X c #6A94A8",
",X c #7492A3",
"<X c #7B94AB",
"1X c #749CAC",
"2X c #7A9BAD",
"3X c #7897A6",
"4X c #7A9DB1",
"5X c #769AB6",
"6X c #6B97AD",
"7X c #77A3AC",
"8X c #7BA4BB",
"9X c #78A6B8",
"0X c #6DA7BA",
"qX c #57899A",
"wX c #5EA6C2",
"eX c #7AACC5",
"rX c #7AB5C9",
"tX c #7AB9D7",
"yX c #6BACCE",
"uX c #74BCE4",
"iX c #7AC6D8",
"pX c #7CC4E4",
"aX c #7AC9E8",
"sX c #7BCEF5",
"dX c #818B98",
"fX c #829397",
"gX c #8399AA",
"hX c #83A6BB",
"jX c #82A9B4",
"kX c #82AEC3",
"lX c #82B6C9",
"zX c #85BAD4",
"xX c #83BDE3",
"cX c #85C2DB",
"vX c #83C5E4",
"bX c #83CBEB",
"nX c #86CAE7",
"mX c #82CAF4",
"MX c #8AD3EF",
/* pixels */
"(  .*...} ] } &.1.;.&...:.>.&.>.%.{ q q o.<.;.$.[ X./ ; < = . = *     = 4 _ I q q [ ' } +.X.*.%.*.&.>.:./ 6 0 %.7.;X7.} U ( *.*.",
"` { &.>.<.&.[ ) } 5.5.1.1.1.&.6.] Y P -.$.+.| | ; ; * oXtXeXtXyXyXtXtXtXoX= . < / | ] ..=.<.$.+.>.,.} $.*._ 0 ; R ) | { } &.>...",
") ` ..&.>.&.&.&. .&.[ 5.@X1.J R -.:.[ ( $.J = 7 yXyXrXaXiXhX2X7X7XgX5XiXaXyXrXyX, ; J } &.:.&.*.} ,.;.,.*.` K 3 3 K ) =.>.:.:.,.",
"&...} } &.<.<.=.&.&.) { | F q | ;.} :.H - Q eXyX8X1X9X8X9XcX&XdX#X,XiXrX5X9X7X5XyXyX3.- 3 } } +.+.+.} 1.=._ ) 0 H _  . .$.+.:.:.",
"&.&.....&.&.$.` &.&...[ ^ K _  .[ ;   oXrXpXMX5X#XfX;X#XkXlX*X%X%X$X9X9X#X@X-X#X5XzXaXyX&X; * ' :.>.*. .) ) } ` | } ] ' } >.>.&.",
"=.>.:.:.....} }  .[ :.:.=.=._ H 9 0XwXeX9X3XeXtXgX#X$X*X;.6 ; ; < 1 8 3.*X%X#X<XvXrX7XhX5XwX:X, | *. .( ) ..>.:.,.>.} } } [ &.,.",
"<.>.&.:.:.>.:.&.=...;.} <.<.E E :XMXtX<X%X@X3X9XlXW - 3 w e r % r e r w w 1 E eX9X>X%X@X<XtXaX0XW U $.*.:...} =.=.:.&.&.{ (  .<.",
"8 E ..<.:.&.&.>.>.&.>.+...U U 1X8X5XzX9X#X-X7.1 > % t u y i s s d y i y e r g 1 - 1.-X*X1XcX5XhX1XU G &.+.:.:.,.:.:.*.&.&.} { ) ",
"L H J ' 2.<.=.,.:.&.@.;.U W :XhX-X#X8XtX7.7 w % e y p s B b.p.y.u.y.p.N p d y e % r 8 oXtX8X$X-X8X>XE G ;.+.&.:.:.} :.>.&.=.H 3 ",
"} &.| J T %.2.=.$.*.&.R ;.:X8X,X=X%X<X3.q % % M i Z d.N y.J.S.m.Z.A.M.r.Z j.r.a a r & q 3.#X#X-X&XeX:X%./ ,.>.=.:.>.&.&.| J 3 6 ",
"{ &.=.,.| T T $.2.5.,.  oXMXkX6X,XdX) 1 t i x e.p.k.D.w.t.J.M.c.M.m.v.q.i.}.!.h.u.x a t % ^ %X,X,XeXMXqX* ..:.;.&.<. .J 2 8 ` _ ",
"| &.&.,.=.*.` J J $.| 3.>XcXlXhX%X/ & t v p.p.C.c.m.D.r.u.J.v.c.M.m.M.9.p.XXF.D.G.p.i.b y % ( %XkXkXzX:XQ g :.1. .( 2 2 ] &.=.` ",
"' } &.>.=.$.` ` R K X :XeX%X2X0XE & r s k.XXA.k.C.m.D.u.u.}.M.C.m.m.Z.0.y.].A.S.R.Z.[.D z u # ' 8X3X;XtX:X. | [ 4 3 T } *...:...",
"' ' ` { ` | ` ( / 2 ! 0X8X%XfXoXX y C x f.].!.!.C.S.D.C t.}.m.m.C.N.m.B y.{.Z.A.^.H.G.D M d.y X oXfX*XhX6X~ 3 1 2 ` *.&.:.>.:.:.",
"=.| ' _ ' ' ' ( I   0XkX<X>X;X| % i y.r.f.}.G.~.m.Q.D.w.y.}.Z.A.S.S.Z.C i.'.S.m.^.x.[.d.C S.i % ' ;X,X#XeXrX= K R  ...>.:.:.>...",
"=.&.&.| ( ' ` ( * ! 8XeX9XgX<.X f 9.b.B j.}.C.S.A.Q.Z.9.u.J.B.F.D.C.m.w.i.P.S.m.D.[.x.t.9.H.v y X =.gXeXrX9X! K T ..] :.:.$.>.:.",
";.:.*.' | } 8 J $ tX0XrXvX3XY # d g.A.B j.].B.D.A.F.Z.B u.P.C.S.F.A.Z.v p.'.Z.m.Z.~.C.u.9.(.m.z # T 1XaX9X9XtX. q { L ' =.<.,.,.",
"1.7.5.' L ) ) _ = uX4X=X3X) + p w.k.C.B g.J.M.S.F.Q.B.w.y.J.S.~.F.A.B.q.i.'.Z.C.C.G.C.r.b J.N.C p + _ ,X$X4XuX  ( *.| ( E | &.5.",
"J 5.<.H K } &.|   tX9X=X<X( X x j.m.m.q.k.J.B.C.F.A.c.w.y.J.N.F.F.A.m.w.i.J.C.m.B.A.D.t.v (.Z.j.b X ) 3X$X4XyX  ( :.>.&.' T ( { ",
"E J 8 ^ &.:.:.T U 8XgX@XOX/ O N m.m.c.w.k.J.B.C.F.N.m.B y.P.C.~.S.A.Z.w.i.P.M.C.Z.A.F.a.B '.Z.C.N O R OX@XgXrXU R | <.&.{ [ ( ( ",
"$.=.L J ) :.R 9 pXrX5X9XW + l q.m.m.c.q.f.J.B.c.S.A.m.w.u..XD.A.A.A.Z.C i.{.Z.m.n.S.F.a.c (.m.c.v s + W 9X7XrXtX8 T &. .` ` _ ` ",
"*.<.*.&.K ( 9 2 sXvXcXMX! + e.'.m.Z.m.q.g.].S.C.C.C.M.C u.}.~.A.C.~.S.v y.'.m.C.m.D.!.d.C .XM.n.B.9.+ Q nXcXbXsX, L } { ` ` ) ' ",
">.=.$.>.&.$.8 7 aX7XfX<XU + 0.}.m.Z.m.B g.H.M.m.m.N.Z.w.t..XS.A.C.~.S.C z.'.C.m.C.A.A.a.9.'.m.C.W.v @ j 3X=X9XaX7 J ' ) } &.&.=.",
";.:.>.>.>.:.T 7 bX1X*X3XR O v S.k.V.f.v g.K.b.k.b.g.c.v w.H.m.f.k.l.m.c u.K.f.c.f.k.k.Z b K.k.j.z.c @ R ,X=X1XcX7 T { } *.:.:.$.",
":.&.:.:.$.<.Y 7 bX1X#X;XO.d x n c c v x x c x N N b v x x c N N l B b b N N x b c v b l l v v N c V d O.;X3X2XpX7 T  .| &.>.&.:.",
"..+.:.:.&.,.R 7 iX9X$X@.z././.).H.F.).H.J.J.J.H.S.).).H.H.J.H.).Q.(.K.J.)./.).J.!.J.J.).Q.J.J.~.K.)./.h.#.#X9XcXG J  .} $.&.>.:.",
">.:.} :.&.:.R 7 mXmXcX@.f.H.W._.R.U.U.Y.W.x.W.l.T.R.R.W.A.x.W.l.I.R.W.W.W.R.A.x.E.T.A.A.S.A.T.E.l.W.S.e.@.cXvXmX: 5 ` <.=.&.>.;.",
":.:.:.<.=.} q 2 vX0X3XO.k.H.l.V.T.I.U.Y.R.z.l.l.I.U.U.l.l.l.l.Y.I.T.U.Y.x.h.l.l.I.U.Y.Y.Y.l.Y.I.j.l.x.y.O.1XeXaXG ; H ( $.2.<.:.",
"5.2.<.,.( 0 ; 9 pX3XdX`.O.v c V V x N b b b b N d V b c b b x b c c x v b b x N B b b V N b b N V V M O.`.-X<XaX7 K o.R 8 T =.7.",
"] :.) 5 8 ) T 9 aX3X*X<X( e a z a a l y a k M h a a k y y k M a z a M y s l a h a i d y y c i s f a e _ ,X;X3XmX: R 4...} T 8 Y ",
") T J 8 ( ` R > aX7X=X1XF o q.c.p.g.s.b y.R.z.d.s.d.s.v w.l.z.y.p.y.h.C w.l.s.i.d.p.s.V V l.d.g.j.v o q 5X*X<XiX9 Y ..*.<.` H R ",
"} <.&.^ _ _ R 7 mXzXiXrXQ @ e.].M.B.V.9.f.}.H.n.B.M.B.0.p.|.H.n.M.C.~.w.p.(.K.v.A.B.m.p.v (.Z.~.k.v o W tXvXzXbX> T 4...| ` _ *.",
">.:.,...{ ) 4 7 aXzXrXzXW o e.}.B.M.v.N b.[.~.G.C.m.c.w.y.}.D.x.m.Z.S.r.z.}.B.c.m.m.B.u.C (.F.A.A.w.O W lXrXtXvX, ^ <.$.} _ ' &.",
">.:.:.>.&.} 8 , vX4X#X=XJ o e.J.k.#.k.A m.{.B.~.Z.m.c.C y.}.F.D.m.Q.A.w.i.].M.C.m.m.M.w.B }.~.A.G.C o q -X%X4XnX7 K &.,.&. .} { ",
"$.} } :. .} F 2 aX5XfX@XG # Z |.#.5.#.m j.P.v.S.Z.A.v.w.u.}.S.~.A.Q.S.w.i.].B.Z.C.A.B.w.v }.~.Z.^.Z # F =X-X6XaX: 0 &.:.=.&.&.&.",
"&.} :.&. .=.T 9 vX5X-X%XU O r.H.>.;X1.m b.|.v.!.A.A.C.C y.].A.Q.A.S.S.C i.].Z.m.A.S.Z.r.B }.F.A.A.B O F =X%X9XnX> 1 ( =.<.>.=.&.",
"&.$.>.,.&.<.T 9 nXrXhXeXE o e.J.#.7.4.S b.J.Z.x.F.F.C.C u.P.A.S.F.Q.G.w.i.P.B.C.F.A.Z.u.B }.F.G.G.C + E eXkXlXbX7 3 H F ' >.1.6.",
"*.>.:.&.&.<.Y > sXpXcXcXQ + r.|.l.} h.e.f.P.B.N.A.~.Z.C y.J.m.Z.!.~.Z.v i.}.B.C.D.A.M.w.B }.~.A.^.t.+ ! cXcXpXaX, H ^ 5 4 L $.5.",
":.:.:.$.&.<.Y 7 vX7X3X3XJ o 0.{.C.[ g.0.j.P.N.v.C.~.Z.C u..Xc.B.!.~.Z.C p.].B.C.F.A.M.u.q.}.~.F.G.B o q ,X,X5XcX7 H o.` L 3 8 ' ",
") } ,.>.*.,.Y 7 bX3X@X-XJ O r.].I.>.h.A m.H.l.L.m.Q.Z.C u.{.C.m.!.~.G.B i.{.Z.m.F.A.M.u.B (.!.F.Z.Z O q =X@X1XaX7 6 _ ` ` o.T 5 ",
"2 L ' ` =.<.Y 7 bX1X-X*XF O q.}.z.+.I.C k.].m.v.C.S.S.r.u.}.M.m.F.|.A.B i.'.B.C.D.A.C.u.9.}.A.F.C.B O j -X%X1XbX, 6 _ [ ( o.` 3 ",
"| ) L J ` <.T 7 cXeX8XhXY @ e.(.c.} l.v j.P.m.m.B.S.S.r.u.}.M.m.D.~.Z.B i.XXZ.S.D.S.N.r.9.(.A.S.S.B O U 8XhXeXpX9 0 _ ) { / L K ",
"&.&.} T K R 8 2 sXnXvXvXQ + u./.I.3.#.N j.P.Z.N.m.Z.D.w.u.].B.C.F.!.S.B d.'.A.F.F.~.Z.t.v '.A.F.!.A + Q nXcXnXbX> 0 ` J 0 T &.&.",
">.>.$.` } &.F : pX9X6X1XU @ r./.>.;X<.m b.|.L.m.c.S.D.Z u.}.M.C.~.Q.G.C i.J.A.F.F.!.S.r.v J.A.~.!.r.o U 1X1X0XpX, 0 0 1 3 &.:.$.",
"&.:.:.&.&.*.R G MX2X%X-XJ @ w.F.>.8.>.m b./.L.m.m.B.G.r.t.].M.C.D.S.Z.C y.}.S.F.D.F.S.r.v (.A.S.G.B o q -X;X4XbX> 1 3 8 L 4.2.:.",
":.:.=.&...*.Y 2 pX1XdXfXj O C }.l.#.I.N k.J.v.A.m.B.Z.w.u.].M.m.Z.A.m.C i.].S.A.G.Q.S.r.v (.Z.A.S.v + q fX-X1XpX> 4  .,.) _ 5.5.",
"+.:.&. .} &.T 9 bX9X2X2XU O e.J.G.h.v.v k.J.v.m.m.B.A.r.u.}.M.m.m.m.B.0.y.XX~.A.m.A.F.u.B '.C.Z.M.B O U 4X2X9XbX, L &.=.| 5 Y | ",
"&.&.} ( ) &.T , sXaXbXmXQ O e.].A.m.B.v f.|.C.v.m.Z.S.r.u.}.M.C.c.m.M.n d.XXH.C.m.A.F.r.v '.B.C.m.A O Q bXMXbXaX> 2 T 2.&.J T =.",
"1.1.;.;.1.>.J 7 sX8X8X4XR O r.[.Z.m.N.9.V.(.M.m.M.m.A.w.y.|.B.c.M.B.B.9.p. XF.n.C.Z.~.a.B |.n.n.c.v + K gX5X8XaXG 3 0 ` ( L <.=.",
"7.5.OX;X1.0 * , vX$X;XfXq o e.J.c.j.V.0.f.S.m.b.b.m.N.0.e.F.M.b.c.f.m.0.p./.Z.C.k.C.Z.w.v H.c.b.l.B O q <X,X7XpX: H _ ( 8 5 ( <.",
"0 H K 8 2 6 5 , aX2X&X=XJ O h q.N V V a c A c N A N A k l C c N N N V z M C N N A N N l s Z N V b d y X.$X,X3XaX7 H o.| ` ( H J ",
"5 6 0 0 K *.E , vX5X;X4.D k.B.v.B.B.B.c.Z.v.Z.M.N.m.M.M.M.v.v.B.m.A.B.M.L.M.v.B.N.k.v.K.K.n.c.A.v.L.C.z.#.$X2XvX7 L *...<.*.T J ",
"( 6 6 T } *.L : mXxXlX@.f.XXA.!._.R.Q.Q.~.S./.^.l.^.Q.Q.)./.).^.U.^.~./.).Q.~.Q.T.W.!./.~.~.^.T.^.^./.s.+.zXpXsX> R :.:.;.=.&.&.",
"=.( H 8 T =.E G aXrX9XO.p.(.l.R.U.I.U.Y.R.Y.Y.Y.h.T.Y.Y.l.Y.Y.U.h.T.U.Y.l.Y.Y.Y.I.U.x.Y.U.l.Y.I.U.l.B.p.O.hXrXnX> R :.,.;.=.>.:.",
"=.&.{ T L ^ 5 > vX7X-X8.E.y.w.V A V Z Z Z C B A D Z A A Z B V Z V D Z Z Z V Z Z D V V t.Z B A Z D q.Z O.8.*X3XaX7 R >.>.$.' { =.",
";.&.=.{ ` ` H 2 aXgX%X,X_ e s k p p p p p s y k y a a p a a p p p p y p a p p p s p s a p s s y a i e / <X$XgXaX7 T *.&.$.` ( | ",
"&.} >.>.&.1.T > aX<XfX&XU # B g.a.a.i.M r.p.w.y.y.t.u.M N f.e.t.r.r.u.c B f.u.t.u.a.y.A M f.u.u.u.d @ F &X$X2XiX: R =.%.{ $.=.` ",
"<.:.:.:.>.=.Y 2 sXzXlXlXW o e.'.D.G.v.0.k.P.n.C.F.S.v.e.u.P.Z.S.!.!.n.r.y.J.D.!.C.F.n.0.9.J.C.C.M.B # W zXzXzXsX7 ] *.( H T ] ` ",
"..:.&.&.:.>.E 7 aXzXrXtXE O w.{.A.A.C.v j.{.m.C.F.A.m.C w.J.A.!.~.Q.B.B y.P.B.F.W.Q.S.r.B '.N.c.B.B @ W rXrXzXmX2 8 3 4 ( ..&.<.",
":.:.:.&.&.>.T 7 bX5X,X#XL @ Z H.A.Q.F.C z.}.m.S.S.C.M.w.y..XG.F.Z.S.S.B i.XXM.M.~.Q.S.r.n .Xm.Z.j.C @ q *X&X5XvX7 ; 1 H =.&.} ;.",
",.} ,.>.4.<.J 7 bX<XdX=XK o u.[.Z.S.K.C z.(.Z.F.n.m.v.w.p..XC.D.C.G.F.n y.XXZ.n.Z.m.m.w.v (.M.v.M.w.o q -X$X<XaX5 ; 3 6 _ } =.&.",
"<.5.7.:.( K ; 2 aXgX,X3XY + e.P.B.Z.Z.w.z..XK.S.m.A.B.C t.XXQ.F.Z.~.H.Z s.'.B.B.M.A.Z.u.v .XZ.c.M.v + Y ,XgXgXaX7 J  .K 0 4 (  .",
"<.2.( 8 0 ) ( U qX3.} ;.2 X k V.d.d.u.y A m.z.y.i.s.y.a M m.z.g.p.z.z.M V m.i.p.y.y.p.k y k.d.d.d.y X 7 %.%.2.qXY ) &...{ H 3 4 ",
"T ( 1 2 R *.<.%.2 $ $ 1 . . w S S S f # % M S S M S f & % M m S M m m % w M S M f f y g & S m m S % X * 1 $ . ; E &.$.>.=.$.6 3 "
};
