/* XPM */
static char *_bc96456358849fad3f04de6df70764dzNttKRUWCCow3z4B[] = {
/* columns rows colors chars-per-pixel */
"64 64 256 2 ",
"   c #020202",
".  c #0B0302",
"X  c #030902",
"o  c #0D0A03",
"O  c #03020A",
"+  c #0B030A",
"@  c #040A0A",
"#  c #0B0B0D",
"$  c #120302",
"%  c #140A02",
"&  c #190807",
"*  c #0B1302",
"=  c #0A1309",
"-  c #1B1302",
";  c #141309",
":  c #181507",
">  c #0D0C12",
",  c #060715",
"<  c #140C14",
"1  c #0E1718",
"2  c #121212",
"3  c #171717",
"4  c #210906",
"5  c #221402",
"6  c #2B1C03",
"7  c #2C1B0B",
"8  c #261907",
"9  c #321C03",
"0  c #321C0C",
"q  c #361907",
"w  c #291A13",
"e  c #331C13",
"r  c #3A1C14",
"t  c #252302",
"y  c #2C2302",
"u  c #2B230A",
"i  c #33230C",
"p  c #3C220B",
"a  c #392704",
"s  c #393308",
"d  c #272317",
"f  c #352614",
"g  c #393314",
"h  c #29330B",
"j  c #161722",
"k  c #1D2005",
"l  c #431D0E",
"z  c #43240C",
"x  c #472908",
"c  c #572C0B",
"v  c #483809",
"b  c #5D340D",
"n  c #5D3A0C",
"m  c #593509",
"M  c #452713",
"N  c #552B16",
"B  c #4A3712",
"V  c #5C3412",
"C  c #5D3A13",
"Z  c #573616",
"A  c #62360B",
"S  c #63390C",
"D  c #663A07",
"F  c #623514",
"G  c #623A13",
"H  c #6B3919",
"J  c #743A17",
"K  c #70380E",
"L  c #673822",
"P  c #4F460B",
"I  c #474304",
"U  c #574909",
"Y  c #5A550B",
"T  c #4A4311",
"R  c #554611",
"E  c #5F5C15",
"W  c #674B0E",
"Q  c #655709",
"!  c #684815",
"~  c #784616",
"^  c #665617",
"/  c #775916",
"(  c #77520B",
")  c #7A6A07",
"_  c #686416",
"`  c #796616",
"'  c #6E4222",
"]  c #813F1D",
"[  c #82510F",
"{  c #864918",
"}  c #964A18",
"|  c #875517",
" . c #9A561C",
".. c #854C0E",
"X. c #AB5B14",
"o. c #AB5C1B",
"O. c #A4591A",
"+. c #B45C1B",
"@. c #B55916",
"#. c #A7550E",
"$. c #876B0A",
"%. c #846816",
"&. c #956B16",
"*. c #897516",
"=. c #927516",
"-. c #887709",
";. c #AB6817",
":. c #B06F13",
">. c #BB6B15",
",. c #B4631B",
"<. c #BA6C1B",
"1. c #B86818",
"2. c #A97717",
"3. c #B3721B",
"4. c #BB721B",
"5. c #BA7515",
"6. c #B16F09",
"7. c #884925",
"8. c #954B26",
"9. c #9A5424",
"0. c #8B5827",
"q. c #AA5623",
"w. c #AB5C23",
"e. c #A55925",
"r. c #B65B26",
"t. c #AA5729",
"y. c #AB6425",
"u. c #B86725",
"i. c #B87222",
"p. c #B66531",
"a. c #987D22",
"s. c #C56A1A",
"d. c #CA7618",
"f. c #D97B1C",
"g. c #CD7011",
"h. c #E67D13",
"j. c #C36C24",
"k. c #C76B26",
"l. c #C57625",
"z. c #DC7D22",
"x. c #D67726",
"c. c #C86931",
"v. c #E47D26",
"b. c #C25D22",
"n. c #9C8A0C",
"m. c #98890A",
"M. c #8D841A",
"N. c #9D8B14",
"B. c #998817",
"V. c #9B9016",
"C. c #8D820E",
"Z. c #A18C0C",
"A. c #A48817",
"S. c #AB931B",
"D. c #B79817",
"F. c #A79808",
"G. c #B8A414",
"H. c #B6AA14",
"J. c #A68F21",
"K. c #B5A221",
"L. c #9A8721",
"P. c #C8801C",
"I. c #C1821B",
"U. c #DC841C",
"Y. c #DA8518",
"T. c #CA9917",
"R. c #DC9916",
"E. c #FB8B0D",
"W. c #FC950D",
"Q. c #E3841D",
"!. c #EB851D",
"~. c #E38B1C",
"^. c #EB8B1C",
"/. c #E58916",
"(. c #FC8E14",
"). c #F48D1D",
"_. c #FD8E1C",
"`. c #F58A19",
"'. c #EA931A",
"]. c #F59414",
"[. c #FD9415",
"{. c #FD9A15",
"}. c #F4931C",
"|. c #FE931D",
" X c #F59A1C",
".X c #FD9A1B",
"XX c #F39C14",
"oX c #EA8D09",
"OX c #DAA81A",
"+X c #D7B818",
"@X c #C7AE17",
"#X c #E7A919",
"$X c #FCA41C",
"%X c #FAA818",
"&X c #E9B71A",
"*X c #FDBC15",
"=X c #FFB31E",
"-X c #F9B81A",
";X c #FDAF0F",
":X c #DC8727",
">X c #CC9029",
",X c #E48422",
"<X c #E48A23",
"1X c #EB8C23",
"2X c #EA8727",
"3X c #F48C22",
"4X c #FD8D23",
"5X c #FE8E2A",
"6X c #F28121",
"7X c #E79826",
"8X c #F49423",
"9X c #FE9421",
"0X c #F69A24",
"qX c #FC9A23",
"wX c #F5932B",
"eX c #FD932B",
"rX c #FD9A2A",
"tX c #F49D2A",
"yX c #FE9631",
"uX c #C9A224",
"iX c #CABA22",
"pX c #D6B822",
"aX c #D7AB2A",
"sX c #E7AA25",
"dX c #FDA224",
"fX c #FDAA23",
"gX c #F8A526",
"hX c #E8B725",
"jX c #FEB421",
"kX c #FDBA23",
"lX c #FFB32B",
"zX c #F8B728",
"xX c #FFB233",
"cX c #D7C115",
"vX c #EDC91B",
"bX c #ECC81A",
"nX c #EBCC1A",
"mX c #E5C91A",
"MX c #FEC21C",
"NX c #FDCB1C",
"BX c #F6C818",
"VX c #FED51C",
"CX c #FDDB1B",
"ZX c #FBD616",
"AX c #E7D112",
"SX c #DCC721",
"DX c #DED62D",
"FX c #E9C823",
"GX c #FDC523",
"HX c #FFC921",
"JX c #FCCB24",
"KX c #F5C627",
"LX c #FFD721",
"PX c #FFDA23",
"IX c #FAD728",
"UX c #FBC131",
/* pixels */
", # # > @ # # + # # # # # # # # # # # # # # # # # # # # # # # # # # # # # # # # # # # # # # # # # # # # # # # # o @ # o > , > 3 ",
"X X       X                                                                                                     O O   X     X k ",
"O O d P P T I P P P P P P P P P P P P P P P P P P P P P P P P P P P P P P P P P P P P P P P P P P P P P P P P P P I T T R g O j ",
"  $ %.vXnXFXNXFXvXvXvXvXvXvXvXvXvXvXvXvXbXvXvXvXvXvXvXnXvXvXvXvXbXvXvXvXvXvXvXnXvXvXnXvXvXvXvXvXvXvXvXnXvXvXvXvXvXBXnXKXBXS.- < ",
"  O %.VXNXKXNXGXHXHXHXHXHXHXHXHXHXHXHXHXHXHXHXHXHXHXHXHXHXHXHXHXHXHXHXHXHXHXHXHXHXHXHXHXHXHXHXHXHXHXHXHXHXHXHXHXMXBXNXHXZXS.* 1 ",
"  O [ {..XrX.X.X.X9X9X9X|.9X9X.X9X9X9X.X9X.X9X9X9X|.9X9X.X9X.X9X.X9X9X9X|.9X.X9X9X9X9X.X.X9X9X9X9X|.9X9X.X9X.X9X9X9X9XrX{.2.& 3 ",
"  . [ `.9XeX_.[.9X_.9X|._.|.|.9X9X|._.|.|.9X|.|.|.|.|.|.9X|.|.9X|.9X9X_.|.|.|.9X9X_.|.|.|.9X|.|.|.|.|.|.9X|.|.9X|.4X8X5X9X3.o 3 ",
"O   [ 9X|.eX|.9X|.|..X|.|..X|.|..X|.|..X|.|.|.|.|.|.|.|..X|.|.|.|.|..X|.|.|.|.|..X|.|.|.|.|.|.|.|.|.|.|..X|.|.|. X9X.X9X|.:.% 1 ",
"  . ~ }.9X).].}.'.9X3X}.].}.wX}.wX}.).}.8X}.}.).3X9X).).wX'.'.(.8X'.}.}.7X).(.}.8X}.}.}.}.).}.}.8XoX X3X^.8X).'.8X].9X3X8X;.% 1 ",
"  X 9 n V C A F n D D m A V A b m n n S A b F A D G D A n V G F V D D G C A S F b b n C C V C n S L n D H n S L A C G C m x @ : ",
"O O   .   O         O                   X         X   .     . O O O         X O                   O     O   X .       X . O , 3 ",
"    v =.*.*.*.*.` - O M A A c V F F F V F V V Z e O 4 b V V A b A F Z F L r   - c b V b b b b b Z V x X O + @ Q =.*.*.$.=.^   w ",
"X X $.LXVXLXVXCXFXs $ ~ ;.o.q.q.O.o.q.q.q.r.+.,.N X p o.#.e.t.;.o.X.X.@.@.J $ 8 O.w.w.O.o.o.w.q.O.<.{ $ O . X K.CXZXPXVXPXD.X = ",
"  , ` -XMXkX*X=XOXu + | >.j.k.>.k.j.j.j.@.w.{ K n U / s.s.j.<.s.j.r.y.{ H ! U Y <.j.u.s.s.j.r.o.8.J K U I % o D.kX*XkXkXMXS.; 1 ",
"  + 7. X.XrX|.9X/.6 $ <.9X5X5X[.9X}.}.1X1.9.z $ =.FX-XwX4X{.`.eX(.c.e.B . Y mXJX9X9X9X_.9X1Xx.+.S @ B SXiXf . 6.9X.X9X9X.X;.: < ",
"X X | 8X(.9X9X[.U.f . >.|._.9X}.|.8X1Xv.#.7.B f M.LX;XrX}.|.eX`.:X+.} C y %.UX*X|.|.).|.8X<Xy.{ ~ h / NX+Xi X i. X9X|.[.qXi.o j ",
"    [ 9X4X9X|.9XY.i . j.[.XX9X5X|.^.r.#.e ; A.FXzX'..X|.8XeX4X@.w.M . *.nX&X.XeXwX[._.4Xu.u.x & ^ nX&X X<X6 X i.9X9X|.9X9X:.o 3 ",
"    [ 9X9X|.|.9X~.i . <.9X0X|.9X).,X;...r y D.IXdXyX5X(.0X'.1Xt.} B 5 a.LX=X].|.9XXX8X).,.O.N 8 $.BXkX9XU.7 X <.|.9X|.|.9X:.. 3 ",
"    [ 9X9X|.9X9XU.u % <.rX9X(.v.u. .q f J.@X#X{..X[.].[.!.1.w.l 8 C.G.#X$XrX9X].5X).s.r.M 6 &.H.aX#XdXqXz.7   i.9X9X|.9X9X:.o 3 ",
"    [ 9X|.|.9X|.Q.6 o >.qX5X9X>Xw.{ 4 - @XZXgX|.'._.eX5X2Xy.0.5 ; S.LXjX_.4XeX0X}.8XX.e.f X B.CXlX].9X[.f.0 . 4.9X.X|.9X9X:.o 3 ",
"    [ 5X9X|.9X|.~.0 $ 5.}.h.f...q C N.S.sXdX0XtX9X9X,Xs.O.z x B.S.7XfX$X9X4X|.`.k.p.N x %.V.T.fX{.9XeX{.U.9   4.9X9X|.9X5X:.o 2 ",
"    [ 9X|.9X|.9X/.q o i.rXd.e.J   s SXCX$X_.[.5X4X0Xx.;.7.& t hXZX$X{.].9X.X X2X,.{ - * G.IXlX5X[.4X3X|.:X6   4..X|.|.9X9X:.% 3 ",
"    [ 9X|.9X9X9XY.r . 9.f.| N ! *.A.gXlX X[.|.|.h.x.O.c n *.*.#XjX0X9X5X9XoXd.p.m G ` *.#X;XdX4X|.9X8Xz.u.5 + 4.9X9X_.9X9X:.o 3 ",
"    [ 9X|.|.9X|.Y.r X { @.N + Y IXBX|.9XwX9X5X{.d.w.K X s FXLX.X|.8X|._.tXz.w.} + 8 +XIXgX_..X}.9X|.U.@. .:   4..X9X9X9X9X:.% 2 ",
"    [ 9X9X|.9X9XQ.y $ N ! ! W 2.jX-X[.eX(.|.,Xv.O.L W W &.&XzX{.9X5X4X:Xh.b.! ! Y / hX=X.X|.9X[.`.:X4.K G & X >.9X9X|..X9X:.+ 3 ",
"    [ 9X|.9X|.9Xv.u   O   ) AXKX).rXW.9XeX9X5.X.c   _ DXBX$X8X5X`..X.Xd.r.L   g AXHX}.}..X X}.9Xx.X.7.$ . O X i..X9X|.9X9X:.% 2 ",
"  O [ 9X|.|.|.9X,Xq   h B A.JXfX9XeX_.yXQ.Y.9.{ ! B &.GX=X[.|.[.|.^.Q.1.{ H v Q hXHXrXeX|.9X1X2Xj.{ ~ v a % % 2.9X9X|.9X9X:.o 3 ",
"    [ 9X9X|.9X|.~.r & S.vX%XeX X[.[.(.4Xs.O.M $ ) mX-X|.yX9X|.(.5Xk.w.Z . Q FX-XrX].9X|.E.[.f.X.D , v SXiXu o 5.9X9X|.|.9X:.o 3 ",
"    [ 9X4X9X9X9XY.e o D.ZX;X[.9X0X9X1X:XO.7.v t B.JXjX X_.8X|.4X,X1. .B u ) KXGX{.}.[.9X3X'.s.} K 8 U KX+Xt X i.9X9X|.|.5X:.. 3 ",
"    [ 9X9X|.|.9XQ.0 * 3.tXtX9X5XwX2Xs.y.l 7 B.pX#XqX0X{.|.eXQ.k.:.M ; *.pXOX.X[.4XyX.X).k.p.Z 3 / +X#XdXU.q . ,.|.9X|.9X9X:.% 2 ",
"    [ 9X|.9X|.|.Q.9 X <.9XeX[.[.eX6XX.{ 7 : S.CX=X9XeXE._.9X].;.} z X M.CX-XyX9X[.).3XwXs.9.N o _ IXBX8X:X8 . 5.9X9X|.9X9X:.o 3 ",
"    [ 9X9X|.9X9X!.r   d.|.8X{.,X<.O.p x B.uX7X%X0X_.|.|.2Xi.t.x f &.uXR.%XrX4X|.eX9Xs.y.b q %.D.OX$X.X{.f.u o 3.9X|.|.9X9X:.o 3 ",
"    [ 9X9X|.9X|.h.a   3.rXwX[.f.+.7.& 8 iXIX$X4X9X[.|.5X,XO.7.: 2 F.PXjX].9X9X X9X7X+.q.7 X A.VXjX].9X[.U.7 . i.9X|.|.9X9X:.. 3 ",
"    [ 9X|.9X|.9XU.l < 3.[.v.x. .N Z -.-.OXlX{..X9X}.U.x.,.b H $.*.R.xXrX|.5X5X).f.<.F c ` *.T.fX$X9XyX9Xx.e . :.9X9X|.9X9X:.o 3 ",
"    [ 9X|.9X_.9X:Xq o :..Xf.y.H X g SXVXdX9X9X9X_.yXU.+.7.$ 5 SXZXfX9X[.[.rX9X!.u.} & o G.PXzX9X9X|.}.{.Y.6 X 3..X9X|.9X9X:.o 3 ",
"    [ 9X9X|.9X|.U.0 *  .v.X.H ! Y %.#XjX9X|.eX9X<Xz.;.K S ^ / OXMXqX4X[.[.^.U.k.J D E _ uX*XgX5X_.|.).Q.j.7 X 5.9X9X|..X9X:.% 2 ",
"    [ 9X9X|.9X9XQ.p   ] @.c O ^ ZXHXgX3XeX].qX[.x.o.A + s FXIX%X4X9X9X9X9Xf.o.} > 6 iXZXrX9X|.9X9X9X:X+.8.4 X >.|.9X|.|.9X:.o 3 ",
"    [ 9X|.9X|.9Xv.y X H ~ ! T $.MX=X X|.eX}.^.!.,.~ W B ` &X*XrX(.[.8X2X2Xl.L ~ P W #X*XgX9X[.[.`.:Xd...H : o >.9X9X|.9X5X:.. 3 ",
"    [ wX9X|.9X9X/.u   . $ ` mXjXyX0X4X[.9X Xk.+.N . Q mX-XXX.X9X|.0XwXl.o.K - z +XKXqX8XgX3XeX9Xx.,.} & & X # <.9X.X_.9X9X:.% 3 ",
"  O [ 9X|.|.9X9X,X7 . - d -.VXlX[.|.eX9X3XoXp.} R d | KXGX X|.4XeX).E.s. .! k R AXUX[.W.|._.}.3Xl.} ~ d : o X i.9X9X|.9X9X:.o 3 ",
"    [ 9X4X9X|.9X,Xe X Z.mXsX X.XeX_.(.5Xp.o.x & $.iXhXrX].rX9X[.8Xs.p.K % Y +XpX.X$X|.0X9X[.d.r.J : v pXK.t . i.9X.X|.9X9X:.+ 3 ",
"    [ 9X9X|.|.9XU.i % D.HXlX9X|.|.8X}.!.,.O.x : =.IX=X[.9X9X6X0X4X>.9.b * _ KXMXrX5X(.0X1X).l.e.A - U JXhXy . 3.9X9X|..X9X:.% 2 ",
"    [ 9X9X|.9X9XY.y . 5.%X8X[..XW.3Xs.;.r e &.K.uX;XXX9X[.9XwXg.1.V 7 ` @X7XdX$X[.5X[.9Xf.b.K 5 / K.@X$X:Xu < 3.9X9X|.9X9X:.o 3 ",
"    [ 9X|.9X|.|.U.i & i.|.9X9X|.9X2XX. .7 * K.PXfX_.eXqX9X8X1Xy. .z   *.ZX=X4X[.|.wX(.3Xj. .x # / LXNX].:Xu . i.9X.X|.9X9X:.o 3 ",
"    [ 5X9X|.9X|.v.0 . 3.[.9X9X,Xi.O.N Z =.n.OXgX.X4X9X[.2Xg.>.N M $.A.aX$XgXtX|.|.8Xf.k.K M / J.T.gXgX[.:X5 X 4.|.9X|.|.5X:.. 3 ",
"    [ 9X|.9X|.9X!.u o >.{.9X0Xx.w...& = +XZXdX4X9X X|.9X2X;.9.& @ F.CXfX_.5X}.9X|.1Xr.O.9 X =.CX-X].9XqXx.f o :.9X9X|.9X9X:.% 2 ",
"    [ 9X|.9X9X9Xh.y o <.9X!.f.;.F ~ ( ` #XjXdX9X).{.2Xh.u.G C / %.T.kX%X9X4X[._.x.l.K D ( _ uX-XxX[.4X}.P.9   3.9X|.|.9X9X:.o 3 ",
"    [ 9X|.|.9X|.2Xt . i.5Xf.o.H   g FXPX XeX[.}.eX|.x.@...+ 6 &XVXgXeX X|.9X0X2X@.} 2 * S.PX=X_.}.9X5X9XY.9 o i.9X9X|.9X9X:.o 3 ",
"  O | _.|.eX|.|.,Xy o y.,X,.~ ! Y ) sXlX$X[.|.|.2Xh.6.! ' ^ Y sXkX$X X|.9X3Xh.d.{ J R W T.MXdX{.].eXeXW.:Xe   i.rX[.|.eX|.<.. 3 ",
"  O ~ ].[.qX(.9X,X6 + J @.N & R FXbX%X}.4X4X9X|.x.r.K + v +XIX X[.(._.4X|.U.y.7.+ y iXNXdX|.|.wX9X_.eX[.Y.6 . <.eX|.|.8XW.;.# 1 ",
".   [ XX|.wX|.9XQ.9 o K  .L t / HXxXrX4X9X}.8X1X:.8.L 7 Q &XMXgX9X9X|.5X^.d.8.~ d v pXNXgX9X9X9X9X|.9X9XU.8 X 3.|.].9XrX|.3.% 3 ",
"  . | qX_.9X.X.Xh.f O ; % ` +XhX{. X|.[.{.9Xs.r.A & / +XhX0X[.[.9XqX].x.y.~ 4 v pX&X#X X.X.X|.W.|.|.|.[.:X7   2..X{.|.4XqXi.. 3 ",
"O + ~ <X'.<X/.~.:Xq   X X ) bX&X'.~.'./.~.:X,.9.N   Q mX&XR.1X2X!.^.'.u.9.V $ h cXKX~.<X~.<X1X~.<X^.Q.1Xi.i $ ;.1X<X!.1X~.&.- 3 ",
"X   5 a z f p z y & . O O 7 g s q p M g p p 9 6 & O ; s g f a f i i p e 7 - O o s s M z p p z z p a a z q @   r a p z x a 6 O ; ",
"  O X o X O @ O X   O   * o   X   @ X   . X   @   X . X O $ . X # O O . . X < # X X o X X   X @ @ X X X . o X   X X @   o . , j ",
"O . P B.n.n.N.N.N.B.A.N.m.m.A.B.n.B.V.m.Z.Z.B.V.A.m.Z.J.m.n.N.B.n.n.N.N.A.C.m.Z.B.B.B.B.B.A.n.B.B.B.n.N.A.A.n.V.A.M.A.n.V._ X 3 ",
"  . *.CXVXIXVXLXVXPXPXCXLXLXVXLXPXCXLXLXVXLXVXLXLXLXVXLXVXLXLXLXLXLXLXVXPXLXVXPXPXPXVXPXVXLXPXCXVXLXLXLXVXLXLXPXPXPXVXLXCXG.o 3 ",
"    %.-XjXlX-X-X=X=XjX=X=XjX=XjX=X=X=XjX=XjX=X=X=XjXjX=XjX=X=XjX=XjXjXjX=XjXjX=XjXjXjX=X=XjXjXjXjX=X=X=XjXjX=XjX-XzXjXlX-XA.% 3 ",
"  O [ }.9X5X_.9X[.|.|.|.|..X|.|.|.|.|..X|.|..X|.|.[..X.X|.|.|..X|.[.|.|.|.|.|.[.|.[.|. X|.[.|.|.|.|..X.X|.|.|.[.[._._.9X|.;.> j ",
"  X [ |.|.9X9X0X9X9X9X9X9X9X9X9X9X9X9X9X9X9X9X9X9X9X9X9X9X9X9X9X9X9X9X9X9X9X9X9X9X9X9X9X9X9X9X9X9X9X9X9X9X9X9X9X9X9X|.9X[.>.% ; ",
"O X [ 5X[.|.[.|.9X|.9XqX|.9X9X9X|.9X9X9X9X9X|.9X9X9X9X9X9X|.9X9X9X|.9X|.9X9X9X|.|.9X9X9X9X9X9X|.|.9X9X9X9X9X|.9XqX|.9X XrXi.o 3 ",
"    ! l.P.P.Y.d.d.P.P.d.d.P.P.P.P.P.d.P.P.P.d.P.d.P.P.P.P.P.d.P.P.P.P.P.P.P.P.d.P.P.P.d.P.P.d.P.d.P.P.P.P.d.P.P.d.d.P.I.P.0.X 3 ",
"O O $ 5 $ o * # % % % % % % % % % % % % % % % % % % % % % % % % % % % % % % % % % % % % % % % % % % % % % % % % ; = . % - & X 3 ",
"* 2 > 2 1 < > 2 2 2 2 2 ; > > 2 > 2 ; > 2 2 2 > ; > 2 2 2 # 2 2 > ; 2 > > 2 2 2 2 ; > > 2 2 2 ; > > 2 2 2 2 > 2 % 2 < 1 2 , j d "
};
