/* XPM */
static char *e33868906b31459a82b802d3477c077fDpLCBikeajbNR4Bw[] = {
/* columns rows colors chars-per-pixel */
"64 64 230 2 ",
"   c #1C1E2D",
".  c #1E202C",
"X  c #23242E",
"o  c #242532",
"O  c #292634",
"+  c #252B33",
"@  c #292C36",
"#  c #2C2D3A",
"$  c #2D333C",
"%  c #2F383F",
"&  c #2E3337",
"*  c #31333D",
"=  c #32393F",
"-  c #1F2944",
";  c #2E3B44",
":  c #333542",
">  c #353B44",
",  c #3A3C45",
"<  c #373D4A",
"1  c #3B3E49",
"2  c #373747",
"3  c #3A3F55",
"4  c #364046",
"5  c #36414B",
"6  c #3C434C",
"7  c #3F484F",
"8  c #3B4547",
"9  c #3D4551",
"0  c #3F4A51",
"q  c #394755",
"w  c #2C4154",
"e  c #3E4D60",
"r  c #3E5466",
"t  c #41444E",
"y  c #444B4E",
"u  c #414244",
"i  c #434652",
"p  c #444B54",
"a  c #494C56",
"s  c #454C59",
"d  c #4B4D59",
"f  c #40455B",
"g  c #465055",
"h  c #4A5155",
"j  c #45535B",
"k  c #4C535B",
"l  c #4E595E",
"z  c #51555D",
"x  c #515B5E",
"c  c #514D4E",
"v  c #54615E",
"b  c #454F64",
"n  c #455662",
"m  c #4E5561",
"M  c #4E5C63",
"N  c #4D5D6A",
"B  c #465A6B",
"V  c #525662",
"C  c #535D63",
"Z  c #595E66",
"A  c #585E66",
"S  c #555E69",
"D  c #595E6A",
"F  c #495E74",
"G  c #445D73",
"H  c #515C74",
"J  c #4D6265",
"K  c #4D616B",
"L  c #45616D",
"P  c #566163",
"I  c #536165",
"U  c #556064",
"Y  c #566165",
"T  c #566166",
"R  c #556165",
"E  c #586266",
"W  c #596265",
"Q  c #566268",
"!  c #556369",
"~  c #596269",
"^  c #5A6569",
"/  c #5A636A",
"(  c #5C6A6D",
")  c #54686A",
"_  c #4C6373",
"`  c #4C657B",
"'  c #526572",
"]  c #566972",
"[  c #5C6B73",
"{  c #566B79",
"}  c #5A6C7D",
"|  c #53657B",
" . c #5C717D",
".. c #5B7178",
"X. c #626D74",
"o. c #626E7A",
"O. c #657379",
"+. c #67767B",
"@. c #586B83",
"#. c #5C7383",
"$. c #5B748C",
"%. c #557189",
"&. c #5C7592",
"*. c #627586",
"=. c #647882",
"-. c #657C8C",
";. c #697D8C",
":. c #677B85",
">. c #707F84",
",. c #667C93",
"<. c #6B8287",
"1. c #76878B",
"2. c #658196",
"3. c #6A8498",
"4. c #748999",
"5. c #75919D",
"6. c #6F88A3",
"7. c #7B95A4",
"8. c #7D99AC",
"9. c #7793A8",
"0. c #7A99B2",
"q. c #7F9AB6",
"w. c #768BA0",
"e. c #6B9ED4",
"r. c #6598CF",
"t. c #79A4CD",
"y. c #75A2D4",
"u. c #7AA4D5",
"i. c #7BA6D9",
"p. c #7BA9DC",
"a. c #78A6DA",
"s. c #7DAEE3",
"d. c #849CAB",
"f. c #839DB3",
"g. c #849DBB",
"h. c #89A2AF",
"j. c #8AA5B6",
"k. c #96ADBC",
"l. c #8CACC6",
"z. c #93ABC5",
"x. c #98AEC6",
"c. c #95B2C9",
"v. c #9CB6CA",
"b. c #82ADDD",
"n. c #8DB5DF",
"m. c #89B4DC",
"M. c #91B6DC",
"N. c #94BADE",
"B. c #9ABEDF",
"V. c #98B9D4",
"C. c #8FB1CA",
"Z. c #A4BED4",
"A. c #A1BDC8",
"S. c #83ADE3",
"D. c #85B1E2",
"F. c #8CB5E4",
"G. c #8FB9E4",
"H. c #8FB7EA",
"J. c #8EB9E9",
"K. c #91B6E4",
"L. c #93B9E6",
"P. c #9ABDE5",
"I. c #93B7EB",
"U. c #94BBEA",
"Y. c #99BEEA",
"T. c #99BEF1",
"R. c #A7BEE0",
"E. c #9DC2DF",
"W. c #A4C5D4",
"Q. c #A9C4D4",
"!. c #ABC8D9",
"~. c #B3CDDB",
"^. c #9EC3E5",
"/. c #97C0EC",
"(. c #9DC2EA",
"). c #9EC7F2",
"_. c #A1C4E6",
"`. c #AACCE3",
"'. c #A3C5EB",
"]. c #A5C9EC",
"[. c #ABCDEC",
"{. c #A8C5E6",
"}. c #B3CDE2",
"|. c #AED1EC",
" X c #ADD3E4",
".X c #B5D2E4",
"XX c #BAD6E6",
"oX c #B3D5EC",
"OX c #B5DBED",
"+X c #BBDAEC",
"@X c #AACEF4",
"#X c #A3C9F3",
"$X c #AED3F4",
"%X c #B2D5F3",
"&X c #B6D9F3",
"*X c #BBDDF2",
"=X c #BADDF9",
"-X c #BDE2F3",
";X c #BDE1FB",
":X c #C0DDED",
">X c #C1DBF2",
",X c #C5E3EE",
"<X c #CCE5EF",
"1X c #CCE9EF",
"2X c #C7E6EB",
"3X c #C4E4F4",
"4X c #CAE6F4",
"5X c #C6EAF4",
"6X c #CCE9F6",
"7X c #C4E6F9",
"8X c #CAE7FA",
"9X c #C6E9FB",
"0X c #CCEAFA",
"qX c #D2EBF5",
"wX c #DBEDF4",
"eX c #D2ECFA",
"rX c #D6E9F6",
"tX c #CCF1FD",
"yX c #C4F2F6",
"uX c #D2F1FD",
"iX c #DDF1FC",
"pX c #D0E7EF",
"aX c #E3F3FB",
"sX c #EBF6FC",
"dX c #EDFBFE",
"fX c #E5F5F9",
"gX c #F4F6FC",
"hX c #F5FBFE",
"jX c #FAFBFD",
"kX c #F8F6FB",
/* pixels */
"A A i > l +.1.:.h % $ p C C A R R R A A k h p > 6 y k C n h m C ~ / k 7 + k A x I R z x , # m D C D R C C R R A C l g l x P k a ",
"C E C l k h g 5 + % i C I R R C R E R P k h A E a > 1 k C h k ^ / < $ i h S C R R R ^ A p , p p ( C R ( ( ( ( E 0 k x ^ E A d a ",
"I I R ^ A a , @ o , k S I I I ^ ^ x C ^ R x C A S z i > i O.=.k : 1 V C C C R R I R A k d h m l 6 4 ! 1.+.J l g I S x R A x h p ",
"P I C x z d a 2 : y h V R W x I v R P R A R R R R E ! k 6 5 1 $ 1 p ! C ! W R A R R x z x C ^ I k > 5 h 0 0 M ! E ! E A l l z C ",
"v I R l g j l h a k h y k ! ! R x R E x S R I C A x R A 7 % 7 h z z E R W M k x R ^ x x R C P x z 6 > i h m C A k l C C C l C C ",
"^ C k k k l W W ~ ~ k s h k C / ! C A I R C j h S x y , 7 x ~ R C x S S M l j h x R l R ^ v I l t k C E ^ S z k z l l x I A E R ",
"~ V p h R R I x ! ! S A S h h ! C ! R A x m h m p i i l W R x I D l x k k a h ~ R R W W R x k s z A x x R x x x C R W I R C ! ~ ",
"s k k C E A R P M R D C C C C C h l C k S D i > 6 C R S R v I W I m S a z S / C R I ! k s h k A R I I I I I R R ! C A I ^ l 7 = ",
"O 2 k A W I W x I C C A W R x I ~ k 5 m X.s > 8 C A I I A R I M ! I I ! R S I S x v p 2 9 V ! R R C ^ x ~ R S ^ R C R ( p > > , ",
"* # > j M l W A I ^ ^ x x C I R x R x h t > t D W P x A R x R ^ R R R x x R E x h y y , $ y ! ! R I W v ! v l v I / C 7 2 h S k ",
"a i $ + > l D A v l v ) W l k ! R S R ~ x y t h C D ! S S C I I C ! R l j m g 4 5 m W v h 8 8 d ^ / ) J ) ) ( ) m 7 > j A S x k ",
"z x x h + @ t z ! R I v I R S R ! C D C I R l l _ #.<.3.8.h.j.j.C.c.V.z.g.0.6.&.@.H K I x A x 8 % l O.<.1.>.^ % > j ~ A A C A k ",
"z E x E k 4 @ * d C / C x z x x R v ! I ' ,.9.z.!.+X5X*X8XtXtX7X5X5X0X6X5X6X6X2XoXz.9.2.' N R A t , p X.( 1 2 3 d k m A R S k h ",
"v R R R x S h @ O ; s C C z l ^ M K =.h.Q.+X9XtX6X0XqX6X6X6X5X6X0X0X0X0X0X0X0X8XyX5X;X-XV.5.` _ / j 6 > : 2 i d p d h h k g p g ",
"x ^ R C W W z t i p p 8 t p m ' 3.c.+X0X0X6X6X6X6X6X4X6X6X6X6XeX6X6X6XrX6X6X6X6X2X4XqX0X6X7X!.9.@.K C p , * 1 i p d p a s g h C ",
"R I R I v g l p k x C p : < #.c.-X0X0X8X0X6X6X6X8X8X8X0X8X0X8X8X0XeX6X6X5X6X0X6XiXsXhXgXdXaXeX0X X6.' m z 6 * @ p d s p h S x A ",
"R ( R C p 6 a a z x ! _ ` w.oX0XeX0X8X4X4X6X6X4X6XrX8X8X6X6X6X6X6X0X0X6X6X6X6X6XgXjXjXhXhXhXhXgXqX-Xl.%.N h z n y > d d k I M P ",
"[ ! j i a k x A I ! ! <.!.0X0X9X4X6XeX0X0X0X0X0X0X0X6X6X0X0X0X4X0X6X0X8X0X0XeX0XhXhXjXhXjXjXhXgXhXiXeXW.-._ M v l i i t p o.+.) ",
"k 5 p a a E R R K ] h.:X0X0X6X0X0X6X6X6X6X0X0X6X6X4X6X6X6X6X0X0X6X6X0X0X8X0X6X8XfXgXhXjXhXhXhXhXkXjXaXeX|.9.K W I ^ k , = R ( 7 ",
"i h p d ~ R m I  .x.eXeX3X8X6X4X6X4X6X6X0X8X6X4XqX6X6X6X6X6X6X6X6X6X6XqX6X6X6X6XwXdXjXjXjXkXhXhXjXkXjXsXuX*X7.J R R A Z p > % 6 ",
"h p k a z ! ! =.W.7X0X4X0X0X4XeX8X6X0X6X6X8X6X0X8X9X3X*X*XOX*X*X*X>X7X7X5X4X4X6X1XaXgXhXjXjXjXhXhXjXkXjXfX6X:X9.] M D i = 6 k D ",
"s t k s j n  .Q.eX0X4X9X4X4XeX3X0X8X6X5X0X8X3XOX].].^.P.L.P.K.K.P.P.Y.'.@X&X-X9X0XeXaXsXhXjXjXkXdXgXjXjXjXwX0X=X5.e q s h x ~ S ",
"S A k D s B A.tX6X8X6X0X0X0XeX6X6X6X8X0X7X&X'.L.U.U.L.U.L.U.U.U.U.U.U.K.K.L.^.'.=X;X9XiXdXhXjXjXhXjXjXjXjXsXiX6X+X4.M C ^ R R R ",
"R x ( C N j.7X9X6X6XeX6X4XeX8X6X6X0X0X*X{.L.K.I.G.G.G.L.L.L.L.L.G.L.L.L.L.F.L.L.K.^.%X4XqXfXgXhXjXjXhXhXhXhX2X6X0X+X5.! x I C R ",
"v W M | f.2X6X4X6X6X6X0X6X8X6XeX6X0X&XY.Y.M.L.U.L.L.L.L.N.N.L.U.U.L.K.L.U.K.L.U.N.L.J.#X;X5XqXdXhXgXjXjXjXsXeX6X4X0XXX;.I P W J ",
"I l N 4.>X6XtX0X6X0X6X6X6X6X6X8X6X3X(.U.K.L.K.U.K.L.J.L.].;X$XL.L.L.L.L.L.L.K.L.K.L.U.U.^.oXeX<XqXfXsXsXfXqX6X0X0X0X0X!...l W C ",
"R R { v.0X6X3X6X6X6X6X0X6X6X0X0X6X%XK.L.L.L.K.K.L.Y.U.U.&XtX;XP.L.U.L.U.L.L.L.L.U.L.L.J.n.P.*X6X6X6XeX6X6X6X6X8X0X3X0X9Xd.C R P ",
"R J 7.9X0XeX6X6X6X6X6X6X6X6X6X8X6X].U.G.U.K.U.L.N.U.U.U.'.oX].N.L.K.L.K.L.K.U.L.U.L.G.U.Y.L.`.0X0X6X7X5X0X0X6X6X6X6X0X9XXX=.x P ",
"+.} W.9X5X3X0X0X6XrXrX8X0X0XrX8X5X#XU.G./.F.U.L.K.L.G./.N.G.L.L.L.L.L.I.U.L.L.L.K.U.L.L.I.L.|.5X6X0X8X8X8X6X6XeXfXwXqX4X8Xh.[ / ",
"5 @.3X5XuX0X8X6X8X8X8X6X6X6X6X8X0XoXK.G.L.U.K.L.Y.L.N.L.I.J.J.L.L.L.L.L.K.L.L.L.U.L.L.P.P.].7X6X6XeXeX0X6X6XqXwXjXhXwX6X5X!. .k ",
"q f.0X6X<XrX8X5X0X6X6X6X6X6X6X6X6X>X(.L.K.P.L.U.I.L.G.G.L.U.L.K.L.L.L.L.L.L.L.L.L.n.L.$X&X3X0X6X6X6X4X6X0XeX6X0XdXhXiXuX9X3X;.< ",
"] Z.0X0XqX4X0X6X6X6X6X8X6X6X8X6X4X6X%XU.I.M.L.U.L.K.U.U.L.L.L.P.I.L.L.L.L.L.L.L.L.U.L._.-X6XqX4X0X6X6X6X6X0X0X0XrXqXwX4X8X8Xk.D ",
"} >X6X2X0X0X<X0X4X0X0X0X6X0X4X6X6X0X7X|.N.G.L.U.I.L.L.L.L.L.L.U.I.K.U.L.U.L.K.K.L.L.L.L.'.;X0X1X6X6X6X0X8X6X6X6X0X0X4X6XeX6X~.{ ",
"-.*X6X6X7X6XqX9XeX0X6X0X7X+X&X&XoX&X&X%X].L.U.U.L.L.L.L.L.L.L.K.U.U.G.K.L.L.L.L.n.L.U.L.N.[.3X8X6XuX6X6X6X6X6X4X5X6X6X6X0X8X:X2.",
";.+X6XqX8X0X4XOX3X4X9X[.B.'.L.G.L.K.L.Y.Y.n.F.K.L.L.L.L.L.L.L.L.L.G.L.L.L.U.L.L.U.U.I.U.L.L.].%X|.*X4X6X6X6X0X0X6XeX6X1X5X6X6Xd.",
"-.+X6XeX8XeX4XoX{.*XW.n.L.G.F.U.U.U.U.L.L.L.U.Y.L.L.L.L.L.L.U.K.L.L.L.L.L.U.L.L.L.G.G.J.J.G.L.P.I.Y.'.oX3X6X6X6X6X6X6X6X6X8X8Xf.",
"2.OX6X6X9XeX6X9X@Xt.m./.U.U.U.I.K.L.L.G.L.L.L.K.L.L.L.L.L.L.K.L.L.U.U.L.L.K.K.L.G.L.U.U.G.U.U.F.T.J.J.K.Y.oX-X6X6X6X4X6XtX0X5Xq.",
"#.`.0X6X0X0XeX9X).G.y.D.J.G.K.K.K.L.L.L.L.L.L.I.I.L.L.L.L.L.U.L.L.L.L.K.U.U.U./.Y.F.m.L.U.L.K.I.M.L.Y.I.K.L.'.%X8X0XqX6X6X5X9Xf.",
"r j.6X6X9X8XpX3X/.J.F.u.p.U./.L.L.L.K.K.L.K.L.L.I.L.I.L.L.L.L.L.L.L.L.U.U.U.L.G.S.u.u.F.L.G.K.Y.N.L.L.Y.I.U.L.L.%X7X0X6X6X0X:X2.",
"- &.XX6X9X5XrX,XP.L.Y.J.p.y.F.U.L.Y.U.L.I.L.L.K.L.L.L.L.U.L.L.U.L.L.L.L.U.G.b.u.a.S.J.L.K.L.Y.L.I.U.L.G.K.K.L.U.V.&X0X0X6X8X~.r ",
"o F M.9X1X6X0X5X].N.N.L.J.S.u.D.G.L.L.L.^.P.F.U.U.K.L.P.N.K.U.J.U.Y.J.D.i.u.b.D.L.L.L.U.U.L.L.L.U.K.L.U.K.K.U.K.J.[.qX6XtX;X,.# ",
"1 ; 2.*X0XqX4XuX%XP.U.I.G.U.F.y.y.b.J.U.K.K.U.U.U.L.K.K.L.L.J.G.F.b.u.u.S.G.L.U.L.L.L.L.L.K.L.L.L.K.K.L.U.Y.U.K.P.[.0X6X-XC._ i ",
"V x q q.;X4XeX4X9X[.K.I.U.N.n.U.e.r.s.U.K.K.L.L.L./.J.D.J.J.D.b.t.i.F.I./.U.L.K.L.L.L.L.L.L.L.L.M./.U.K.U.U.U.L._.;X0X0X.X .B S ",
"D A k w j.8X4X6X6X=X].G.L./.G.J.s.e.p.I.U.U.L.K.K.D.a.y.p.a.y.p.F.G.U.U.K.L.L.P.L.L.K.L.U.L.L.L./.U.J.I.Y.M.N.#X-X9XtXXX*.m I ^ ",
"J [ X.$ w 8.-X0X6X6X-X_.n.K.T.U.G.F.L.G.K./.L.L.U.G.y.e.a.p.D.Y.U.J.L.L.L.L.L.K.K.L.L.L.L.U.L.L.F.U.U.K.K.B.oX9X6X0X+X7.K C E l ",
"....d c x L 3.}.6XtX5X*X].U.U.K.L.P.Y.L.L.L.G.U.K.F.b.y.a.D.F./.G.J.L.L.K.K.L.U.U.L.U.L.L.K.K.L.U./.L.N.[.7X0X8X6X~.4.M C ~ R W ",
"h 5 o d P C n e q.XX0X0X*XP.N.U.P.K.L.L.Y.L.L.U.L.U.L.G.F.J.L.K.U.L.L.L.L.Y.L.G.K.L.U.L.L.K.U.U.M.P.[.3X8X8X4X3Xk.] ! s k ! A x ",
"z a : H o.u , q r &.j.oXtX3X|.U.I.J.U.U.L.L.L.K.U.L.F.L.U.L.L.K.U.L.L.L.L.L.L.U.K.U.L.L.K.U.Y.#X%X;X9X4X6X4Xx.` B ! z h p l C v ",
"x / 6 i d : 6 S A C ! $.j.oX9X7X&X|.(.(.Y.L.U.I.L.U.U.L.K.L.G.L.Y.Y.U.F.G.U.U.J.L.U.U.^.|.*X3X6X8X8X5X+Xv.4.p   * p E R ) ! I ] ",
"~ 6 @ : y a a s x R D N B } 7.W.+X3XtX7X*X*XOX X@X@X).(.(.#X(./.P.P.P.'.]._.].%XoX-X9X0X9X9X8X3XXXA.5. .' C h 9 # X % ^ 1.1.[ O.",
", $ t d a z h y z A A R ! l j B ,.8.v..X6X6X,X1X4X6X0X4X6X5X:X5X7X5X3X5X4XeXeX6X0X5X4X>X.X}.c.3.] ! J N ! D C z V y * O $ 1 2 % ",
"6 t A ~ A x k l s x x v R C m D C k n B @.g._.{.W..XOX-X9X0X9X0X9X9X7X3XXXXX}.Q.x.f.w.,.} ] ' C S I ~ R S z C R C C d , * * # @ ",
"C C C C R ^ I I / M l x x A R C A z i 1 j J M K ` %.$.2.9.0.0.0.8.f.9.$.B _ | B N q ; $ y z v v I R v A P P I I R E / d , * : i ",
"C C R R I I R I ! M C m g x ~ C y , y x A A ! R D C ! C S D C C I M g > , k ^ v D D t $ 2 z P P I x R x R E R C R A V i * : i m ",
"C k k C C R E x C ! ! D h g p > q b C C R P x v M l I I M I ) I V 1 2 k ~ A S ! C V d i i f m S R P ^ I x I R R ^ p , 1 t a m I ",
"d i a z I ~ A S R C C C s 6 t z P l C v I A D ! I k x W I W R g 6 4 s x x x R v l s h C C C C y x S ! R R ^ E x p t a d z S R R ",
"h ! V d C l l ^ ( D h 9 i V D m x R E C W x R I x p k S C k 6 o 1 a a d a k x C x R R R R R C A 0 p j ! +.[ p $ g x A A R x I I ",
"p k 1 : t P 1.+.C > o = d V V k R x C I E A I C k k k 7 : i d t # t a s a C A S R C x C R E R R R l g l h 8 7 z v ^ ! C A C R I ",
"S ~ k a $ @ y 8 @ > : o X : a z k R ^ J x ^ C ^ a p 7 7 8 m P x d < > 7 k S l R R E R R A x I R ( S C S h < t W I C I I R ^ E A ",
"W m S V $ . O : i d C A y @ * p x R ....I ( l 0 2 6 s C C C A A C D m 4 > x C S C C A ~ R R R v C A ! ! C p , t C l I I I I x C ",
"l C C h # @ > z C R R I A l 6 + @ k O.1.>.R 6 $ 7 k E S C k I R R C R C y 8 6 C A x k C S R ! R S ~ S x S x a 6 1 i D ( R I C ^ ",
"C p $ # , p C D R W R I C ^ C h < @ ; I s # t C A S R C R l l R W C C E S l > $ 6 p E ( A C S C l x k h k k k k d 1 1 i S O.O.) ",
"# # > h ! A E R C R W I I x C R C k 1 = * , z ~ R x C R R k h S I R R E S C , @ + 6 S ^ k k C k l x C C R R I W ~ V i : $ 0 ! / ",
"O # V D C l l I R C x I R R A A V s C d * O : k x ^ I I S S x C R E C E h 6 , i z z a , + , x R A I A A R R C I I [ C 1 o # i 6 "
};
