/* XPM */
static char *_cebf733d01f4d37b35d32580c7f5882ZSai0WtRI4nbcvRN[] = {
/* columns rows colors chars-per-pixel */
"64 64 231 2 ",
"   c #1C1E2D",
".  c #1E202C",
"X  c #23242E",
"o  c #242532",
"O  c #292634",
"+  c #252B33",
"@  c #292B36",
"#  c #2C2D3A",
"$  c #2D333C",
"%  c #2F383F",
"&  c #2E3337",
"*  c #31333D",
"=  c #32393F",
"-  c #1F2944",
";  c #2E3B44",
":  c #333542",
">  c #353B44",
",  c #3A3C45",
"<  c #363D4A",
"1  c #3B3E49",
"2  c #373747",
"3  c #3A3F55",
"4  c #364046",
"5  c #36414B",
"6  c #3C434C",
"7  c #3F484F",
"8  c #3B4547",
"9  c #3D4551",
"0  c #3F4951",
"q  c #394755",
"w  c #2C4154",
"e  c #3E4D60",
"r  c #3E5466",
"t  c #41444E",
"y  c #444B4E",
"u  c #414244",
"i  c #434652",
"p  c #444B54",
"a  c #494C56",
"s  c #454C59",
"d  c #4B4D59",
"f  c #40455B",
"g  c #465055",
"h  c #4A5155",
"j  c #45535B",
"k  c #4C535B",
"l  c #4E595E",
"z  c #51555D",
"x  c #515B5E",
"c  c #514D4E",
"v  c #54615E",
"b  c #454F64",
"n  c #455662",
"m  c #4E5561",
"M  c #4E5C63",
"N  c #4D5D6A",
"B  c #465A6B",
"V  c #525662",
"C  c #535D63",
"Z  c #595E66",
"A  c #585E66",
"S  c #555E69",
"D  c #595E6A",
"F  c #495E74",
"G  c #445D73",
"H  c #515C74",
"J  c #4D6265",
"K  c #4D616B",
"L  c #45616D",
"P  c #566163",
"I  c #536165",
"U  c #556064",
"Y  c #566165",
"T  c #566166",
"R  c #556165",
"E  c #586266",
"W  c #596265",
"Q  c #566268",
"!  c #556269",
"~  c #586168",
"^  c #5A6269",
"/  c #596569",
"(  c #5A636A",
")  c #5C696D",
"_  c #546869",
"`  c #4C6373",
"'  c #4C657B",
"]  c #526572",
"[  c #566972",
"{  c #5C6B73",
"}  c #566B79",
"|  c #5A6C7D",
" . c #53657B",
".. c #5C717D",
"X. c #5B7178",
"o. c #626D74",
"O. c #626E7A",
"+. c #657379",
"@. c #67767B",
"#. c #586B83",
"$. c #5C7383",
"%. c #5B748C",
"&. c #557189",
"*. c #5C7592",
"=. c #627586",
"-. c #647882",
";. c #657C8C",
":. c #697D8C",
">. c #677B85",
",. c #707F84",
"<. c #667C93",
"1. c #6B8287",
"2. c #76878B",
"3. c #658196",
"4. c #6A8498",
"5. c #748999",
"6. c #75919D",
"7. c #6F88A3",
"8. c #7B95A4",
"9. c #7D99AC",
"0. c #7793A8",
"q. c #7A99B2",
"w. c #7F9AB6",
"e. c #768BA0",
"r. c #6B9ED4",
"t. c #6598CF",
"y. c #79A4CD",
"u. c #75A2D4",
"i. c #7AA4D5",
"p. c #7BA6D9",
"a. c #7BA9DC",
"s. c #78A6DA",
"d. c #7DAEE3",
"f. c #849CAB",
"g. c #839DB3",
"h. c #849DBB",
"j. c #89A2AF",
"k. c #8AA5B6",
"l. c #96ADBC",
"z. c #8CACC6",
"x. c #93ABC5",
"c. c #98AEC6",
"v. c #95B2C9",
"b. c #9CB6CA",
"n. c #82ADDD",
"m. c #8DB5DF",
"M. c #89B4DC",
"N. c #91B6DC",
"B. c #94BADE",
"V. c #9ABEDF",
"C. c #98B9D4",
"Z. c #8FB1CA",
"A. c #A4BED4",
"S. c #A1BDC8",
"D. c #83ADE3",
"F. c #85B1E2",
"G. c #8CB5E4",
"H. c #8FB9E4",
"J. c #8FB7EA",
"K. c #8EB9E9",
"L. c #91B6E4",
"P. c #93B9E6",
"I. c #9ABDE5",
"U. c #93B7EB",
"Y. c #94BBEA",
"T. c #99BEEA",
"R. c #99BEF1",
"E. c #A7BEE0",
"W. c #9DC2DF",
"Q. c #A4C5D4",
"!. c #A9C4D4",
"~. c #ABC8D9",
"^. c #B3CDDB",
"/. c #9EC3E5",
"(. c #97C0EC",
"). c #9DC2EA",
"_. c #9EC7F2",
"`. c #A1C4E6",
"'. c #AACCE3",
"]. c #A3C5EB",
"[. c #A5C9EC",
"{. c #ABCDEC",
"}. c #A8C5E6",
"|. c #B3CDE2",
" X c #AED1EC",
".X c #ADD3E4",
"XX c #B5D2E4",
"oX c #BAD6E6",
"OX c #B3D5EC",
"+X c #B6DBED",
"@X c #BBDAEC",
"#X c #AACEF4",
"$X c #A3C9F3",
"%X c #AED3F4",
"&X c #B2D5F3",
"*X c #B6D9F3",
"=X c #BBDDF2",
"-X c #BADDF9",
";X c #BDE2F2",
":X c #BDE1FB",
">X c #C0DDED",
",X c #C1DBF2",
"<X c #C5E3EE",
"1X c #CCE5EF",
"2X c #CCE9EF",
"3X c #C7E6EB",
"4X c #C4E4F4",
"5X c #CAE6F4",
"6X c #C6EAF4",
"7X c #CCE9F6",
"8X c #C4E6F9",
"9X c #CAE7FA",
"0X c #C6E9FB",
"qX c #CCEAFA",
"wX c #D2EBF5",
"eX c #DBEDF4",
"rX c #D2ECFA",
"tX c #D6E9F6",
"yX c #CCF1FD",
"uX c #C4F2F6",
"iX c #D2F1FD",
"pX c #DDF1FC",
"aX c #D0E7EF",
"sX c #E3F3FB",
"dX c #EBF6FC",
"fX c #EDFBFE",
"gX c #E5F5F9",
"hX c #F4F6FC",
"jX c #F5FBFE",
"kX c #FAFBFD",
"lX c #F8F6FB",
/* pixels */
"p z Z C l g l U U P T U v T T C D m # < V C T U M T k + 6 k ( S C l j m V l i 1 , a a k A C T P P C C C g $ $ d >.2.,.j 4 7 E C ",
"a k x A / C k p T ) ) { ) _ C ) i p < i Z Z P _ P x P h p % < ) Z l k M m < > a ^ C h l ( C T P C P T T V i : @ 4 g h k l x ( C ",
"p d x C T C C C g l M @.2./ 4 8 l l k g z C C P E T C C C V < $ l @.+.0 > t x Z x C x I E C P E E T C T C k , o @ , a A E T T U ",
"V x l x C E ( Z / M 0 0 j > > x T T P x z C P C C T ! / V Z a 1 # 1 6 1 k E E T T T T U T E P x I C T T z k i : : a h z C v I I ",
"C C l C U C m k C V l h p > 6 z x U v T C x T U x k M T T / x z k 7 > 7 C P x C C C T C P T P x U I Q l i h l p h x h s l T T x ",
"T Q P P l x l l k l C E C A d t l C C E P l P C h s m V C C C V C / x 8 4 p V T h j C T U C P Q ) M k h p l ( Q / T l l k k C / ",
"( ( V P T T I C V C U U C C C z s k l P T E T C T k a l l V l Q T m P E l p 0 p V d m V V / T C T k k C S C ( Q M U C C h p x ( ",
"% 7 l / U U C T U P J U U I U P S l h p l / C I C ( C z d C M I T U P P C / V 9 > i Q C l C l j V C C C C Q T M P P C ( V k m p ",
"1 : > p ) Q I Q T A T E x T C P T T V 9 2 f C v C ! S C ! S I ! J T T C C T C C 8 > s o.V 8 k ( U x T / ^ C C U v _ C / C d 1 O ",
"k S h > 7 C / I U l v _ U / C T ! Q 0 $ > y y h x E T x x P P P P P x C P C P ^ D i : 7 s x T x I J U l x T T _ T T l l h < # # ",
"k V C ( s 4 8 m _ ) _ _ J _ / / h 7 8 h v / k 1 > g m k m _ ! J T C C Q C T T V z 8 y x ( C C T Q l l T ) v x x A Z V > o $ a a ",
"k C C Z Z ^ s < % _ 1.2.1.+.k : u x P M Q S H #.*.7.w.h.z.b.v.v.k.k.k.9.4.4.$.` l l T T C S C Q C C T I l v C ( k y @ @ g V x z ",
"k l C E V V k d 9 > 1 ) o.p 4 y U I B ] <.0.x.OX<X7X6X6X7XyX6X6X0XyXyX0X>X4X@X~.x.0.3.[ ! T v v P x x x I / S d * @ 1 l E C T x ",
"g p h k k h d p d i 2 : > 8 d ( ` ' 5.W.;X6XuXuXqXqXqX0XqXrXqXqX7X6X7X7X7XwXrX5XyX9X@X!.j.-.! N / k z C C p : O + a C x P P T v ",
"C h g s a s d p i 1 * 2 p M K $.0.~.4X7XqXqX5X3X5X7X5X5XwX7XaX5XwX7X5XwX7X5X7XwX6X7X7XqXqX>Xc.4.` m i t 8 0 y y 8 z E ) M U T C ",
"C C Z h p p d i @ * t m m ] 7.'.rXtXsXfXfXjXdXeX7XrX7X7X7XqXqXqX9X0XqX0X0XqX9X0X5X7X7X0X0X0XqX=Xv.=.2 : g v x k p l g l U T P T ",
"U M I k s d > 0 m k h N &.z.,XwXhXjXjXjXkXkXkXhX7X7X7X7X7XqX7XrX5X5X7X7X9X7X7XqX5X5X7X7X9X7X7XqXqXOX0.` ` ! V x h s 6 p C ( / ! ",
") @.o.p 6 a p l U M _ <.Q.qXpXjXjXkXkXjXjXjXjXjXrXrXqX9XqX9X9X7X7XqXqXqX7XrX9XrXwXqX9XrXqX7X7X7XqXqXqX!.1.! / M C x k a y a ( { ",
"8 / Q % , k ( U P K 0. XrXsXkXlXjXjXjXlXjXjXjXgX7X0XqX0XqX7X7X7XqXwX7X7X7X7X7X7XqXqX9X9X7X7X5XwXrX4XqXrX>Xj.] ! P C E d d p > k ",
"7 % > p Z Z C I J 8.*XiXdXkXkXlXjXjXlXjXkXkXfXeX7X7XwX7XwX7X7X6X7X7X7X7X5X7X7X7X9X9XqX7X7X7X9X7X9XqXqX4XiXqXc.| I C C ^ d i k 0 ",
"S l 8 = i S C ] 9.=X7XgXkXlXkXjXlXkXkXkXkXjXpX1X7X7X4X4X8X4X:X4X*X@X=X=X=X4X9X0X7X7X7X7X7X7X7X9XrX9XrXqX9X0X9XQ.-./ Q k d k i h ",
"C / x k p 9 e 8.,X0XeXkXkXkXjXfXlXkXkXjXfXsXtXqX0X8X*X{.].T.I.P.P.P.I.P.I./.].].+X;X8XqX7X9X0XrX<XrX5X4XqX7XqXqX!...n j s k p s ",
"Q C U T V m 5.+X7XpXdXkXkXkXkXkXkXjXjXdXpX0X:X-X].I.P.L.P.U.U.U.Y.Y.P.U.P.U.Y.Y.B.`.*X0XqXqXqX7X7XqX7X7XqX7X7X7XyXb.B j ( k C C ",
"T U U C [ 6.=XqX7X3XjXjXjXjXlXkXkXjXgXeX4X*X/.H.P.P.L.L.P.P.P.P.H.H.P.P.P.P.P.P.Y.L.P.].=XqX7X7X0XrXrX5X7XrX7X7X0X9Xk.N m / C T ",
"J T P I 1.oXqX7X7XwXdXkXkXlXjXjXgXeX6X:X$XK.P.B.P.P.P.P.P.P.P.P.(.P.N.P.(.H.H.P.Y.P.N.Y.T.*X0XaX9X7X7X7X7X9X7X7X9X7X3Xk. .M / C ",
"C E M { ~.qXqXqXqX7XwXgXdXdXsXwX7XqXOX/.Y.U.P.H.P.P.U.P.P.P.P.P.P.%X-X{.B.K.Y.N.P.P.P.P.Y.).4X7X7XwX9XqX7XwX9X7XyX7X7X,X4.N l P ",
"P C I f.qX0X8X7X0X6X7XwXwXrX5X5X5X=XI.m.K.P.P.T.P.P.P.P.P.U.Y.L.I.:XyX*XY.Y.(.P.L.L.P.L.U.H.OX7X7X9X7X7X9X7X7XqX7X<X7XqXb.} T P ",
"W l -.oX8X0X5XwX7X6XqXqX0X4X7X0X7X{.L.T.(.L.P.L.P.P.P.P.P.P.P.P.P.{.OX].I.U.P.P.L.Y.L.(.P.Y.[.0XqX7X9XwX9X7X7X9XqX7XqXqX6X8.K T ",
"^ o.j.qX4XrXeXgXeX7X7X0XqXqXqXrX6X XP.U.H.L.(.L.P.P.P.P.P.P.P.P.P.P.P.P.P.H.H.H.P.P.L.(.P.L.[.7X7X9X7X9X7X9X7XwXrX7X<X4XqXQ.| @.",
"k | ~.9XwXeXjXkXeXwX5X7X9XrXtX5XqX8X{.P.P.P.P.Y.P.U.P.U.P.P.P.P.P.Y.U.U.P.B.(.(.P.P.Y.P.H.L.&XqX7XwX7X7X7XqX7X9X7XqXqXrX6X;X$.5 ",
"4 >.4XqXrXpXfXdXqX0XrXrX7X7X7X7X6XqX4X;X%XP.L.L.P.P.P.P.P.U.P.P.H.Y.Y.P.H.H.H.L.Y.P.P.P.U./.,X7X7X9X9XwX7X7XqX7X6X9XtX5X7XqXg.q ",
"Q l.qX9X5XeXwXeXqXqXqXqX7X5X7XqX5XwX2X;X].P.Y.P.P.P.P.P.P.P.P.P.P.P.B.P.P.Y.P.P.U.P.N.U.Y.%X9XwX7X7X7X9X9X7X7XqX6XrX5XwX0XqXA.} ",
"} ^.7XyX7X9XqXqX2XwX7X0XqXqX5X5X2XqX;X].P.P.P.P.P.P.P.P.P.Y.P.H.P.P.P.P.P.P.P.P.K.H.L.V. X8XqX7X7X5X7XqX7XqXqX4XqX1XrXqX7X7X=X| ",
"1.@X7XqX7X7XqX4X9XqX7X7X5X7XwXrX0X;X XP.H.(.P.m.P.P.P.P.P.H.P.Y.P.P.U.P.P.P.U.P.(.P.P.[.%X*X&XOX*X+XOX9XqX9XrXrX8XwXqX4X2X7X=X>.",
"g.9X7X6X5X7XrX7XqXqX7X7X7X8X=X&XOX].P.Y.U.Y.Y.P.P.P.Y.P.P.H.Y.P.P.P.P.P.P.P.P.P.P.G.G.T.(.P.P.I.m.I./.I. X0X7X4X+X5XwX9XwX7X=X>.",
"g.qX7X7X5X5XwX7X7X7X6X4XOX].T.Y.I.P.U.K.Y.H.G.P.P.P.P.Y.P.P.P.P.P.P.P.P.P.P.P.P.I.P.P.P.U.P.U.Y.K.H.H.P.N./.*X'.+X5XqX0XrX4X=X;.",
"k.8X0X7XwX5X7X7X7X<X X/.P.L.U.Y.H.Y.Y.K.U.Y.P.B.P.P.L.P.P.Y.P.P.P.P.P.P.P.P.P.P.L.P.P.L.H.L.P.H.T.U.U.K.(.M.y.%X8X7XqXqX5X7X+X1.",
"q.9X7X7X7X7X9X9X&X].L.U.Y.Y.P.m.P.H.H.Y.P.m.G.(.(.Y.U.P.P.P.P.P.P.P.U.P.P.U.P.P.Y.P.P.Y.P.P.(.P.L.P.H.Y.D.u.H._.qXrXqXqXwXyX'.%.",
"3.@X7X7X5XqX6X XP.P.U.Y.(.P.P.P.T.P.H.P.G.i.i.F.H.P.Y.Y.U.P.P.P.P.P.P.P.P.U.P.P.Y.P.G.P.L.N.L.L.L.(.(.a.i.K.P.P.4X7X7X0X7X9Xh.e ",
"r ^.7XyXqXqX*XW.P.P.L.L.P.L.P.Y.P.P.P.P.K.K.D.s.i.n.H.Y.P.P.Y.P.P.U.P.P.P.P.P.P.L.Y.P.Y.P.(.Y.U.P.G.u.s.Y.U.L./.,XtX6X8X7X@X*.- ",
"$ <.-XyX6XwX{.J.U.P.L.P.P.I.L.P.P.P.P.U.P.P.P.P.F.n.p.p.F.Y.Y.H.Y.U.L.B.I.L.L.Y.Y.H.Y.I.L.P.I.L.F.p.D.H.P.B.B.[.6XqXwX5X0XC.' o ",
"i ' Z.;X7X7X XP.L.Y.Y.Y.P.L.H.(.P.P.L.P.P.P.P.P.Y.Y.G.n.i.i.a.K.H.U.Y.L.H.H.P.P.Y.P.P.L.Y.Y.n.u.i.F.Y.H.Y.P.P.*XyX5XqXqX=X3.; 1 ",
"Z N | XXqXqX:X`.P.P.Y.Y.H.P.P.m.P.P.P.P.P.P.P.U.L.P.Y.T.Y.G.p.y.n.D.K.K.G.K.Y.P.P.P.L.L.Y.d.t.r.U.G.P.(.Y.U.{.0X5XwX7X:Xq.9 C z ",
"/ I M =.oXyX8X4X[.B.L.Y.Y.U.Y.(.P.Y.Y.P.P.P.P.P.T.P.P.L.P.K.H.H.p.u.s.d.u.p.F.H.P.P.Y.Y.K.a.r.d.K.H.I.P.L.].:X7X7X5X9Xh.w k A T ",
"x P V N 8.@XyX7XqX XI.L.P.P.U.G.P.P.U.P.P.P.P.U.P.P.P.P.P.P.Y.U.Y.F.a.s.r.u.G.Y.P.P.T.L.L.P.G.H.Y.R.L.m.].;X6X7XqX;X9.5 * o.{ J ",
"E C ( A B 5.^.5X9XrX8X'.B.L.T.T.P.L.P.P.P.P.P.L.Y.P.N.L.P.Y.P.H.Y.H.F.s.u.a.H.L.Y.P.Y.P.P.)./.P.P.Y.Y.[.=X7XqX7XXX4.L x c h X.X.",
"x P S l g / { l.,X7X9XqX4X{.I.N.Y.I.P.P.P.U.P.P.H.P.P.(.P.P.L.Y.P.P.U.H.H.H.Y.P.Y.L.P.Y.P.P.G.P.P.N.W.=XqXqXXX9.e j x A d o 5 l ",
"W C m p h k K B ' c.9X9X9XqX-X&X$XT.P.P.P.P.P.P.Y.H.P.P.P.P.Y.Y.P.P.P.P.P.P.L.Y.L.P.P.P.P.Y.U.Y.T. X;XyXOXh.*.F q , u O.F : y z ",
"[ _ _ _ T E s *   p 5.S.oX6X0XqX9X4X=XOX/.P.P.Y.P.Y.Y.K.H.H.Y.Y.H.H.H.P.P.P.P.L.Y.U.Y.T.T./.{.-X8X0XOXk.=.] S T T 4 = d i 6 ( V ",
"o.o.1.2.E * X $ t s S ] ..6.b.oX8X9X8X8XyX8X=X+X&X].].[.].].I.I.).).$X).)._.#X#X.X=X=X@X8XyX6X@XQ.8.} B N Q C V a k p t = O 9 ( ",
": : 1 $ + & i z k A S ( C N _ } <.b.XXXX=X0X7XqX7XqX7X7X5X6X6X6X4X<X7X7X7X7XwX5X6X6X7X0XoXb.9.<.B j m Q P C Z x p a k a z t # 1 ",
"O # = * 1 z C C C C z C S Q I C N ] ] } :.e.g.c.!.^.oX@X=X9X0X0XyX0X0X0X;X@X.XW.}.Q.h.#.B j k C T m C P v C V s x k A A E C t 1 ",
"i : # 1 z ( T T I I E P C v P P v v x y $ ; q N B  .` B %.9.g.9.q.q.q.0.3.%.&.' N M N j 4 i V Z C ( P x x l M / U C / T V U C C ",
"V i 2 # i V C T J P T P P C P x Z S z , # i Z T P E k , 4 p m S l C S C C I S S Q ( C C C p 4 t V ( V s m I m ! J _ U U T T I C ",
"I l d t 1 1 p E P E I M I / T T D m d i f d l V E C Z D z : < V U / T C I U l C v x P E C V b 3 1 p h k T / T C x E T C V l h A ",
"I T C z d a t p x P ( ! I / C x p z C x x k g l v T C x x p 6 6 g T T I T V l C ( Q C P U v x v l 8 4 d V C C P E C Q C l a i d ",
"I T C E E v l g $ p o.@.) j 7 p C x P T P P P C C V k a d d s , X 7 k V Q m s x I T x ^ C P T x V A z i 9 k S ) T v l V d V S h ",
"C T C C C E E C z 6 8 j k j l T T T T T C C C P T C C p i d t # 9 h 7 : 7 h k h M C P T P C x E k V A d : o > C @.1.Q p : < l p ",
"C E / P C I C ! D t : h I C U ) I C C C P T T T T m T l t > 4 k V ( V 8 7 7 p s ) v / C l _ W k z a * X + : : @ u 8 @ # p l ( C ",
"C C T J I T m A t 6 p C / T I V U P T / T P C C T C m > 4 V T C T C C x V d 6 , t m ) I X.X.T x i * # t C C h p 1 + X $ A C m Q ",
"/ J U I ) D i 1 6 s V C V I / Q I / T C C V x C T 4 8 p C T C / P v l m I ( k 9 $ 1 Q 1.2.X.k @ + 8 m T U T T C z : @ # d C V M ",
"/ o.@.T p > 1 d h k l l k k x m C C C C ) Z p 6 $ > V T T C C T C l l Q C Q C Z A 1 $ p ! 4 @ 1 k C T U U I T U ^ Z p 1 # @ p C ",
"( ( p $ : i x / E C C P C x C l l V h l ^ Z 1 @ + 1 V T E P T C C k k / T x C C ( V , * % 5 h C T C x U I T P C C / V Q k > # @ ",
"9 i @ X 1 A { J U U P E Z C E C ( m < @ , a z z y 1 4 k T P T T C m I U U U ) C h : O : d C s V C P T T U C C T I x l A Z V # O "
};
