/* XPM */
static char *b16c7a8b5afb4cbcf9a75c8c5eda1b3bxwBCevzJJeobBLC1[] = {
/* columns rows colors chars-per-pixel */
"64 64 87 1 ",
"  c #221F2C",
". c #25222F",
"X c #272531",
"o c #282633",
"O c #2B2A36",
"+ c #2E2D3A",
"@ c #302F3D",
"# c #2F303C",
"$ c #31323D",
"% c #343541",
"& c #373944",
"* c #393B46",
"= c #3B3E49",
"- c #3E424C",
"; c #41454E",
": c #42484F",
"> c #424651",
", c #454B53",
"< c #484D56",
"1 c #4A4F58",
"2 c #475057",
"3 c #495057",
"4 c #475159",
"5 c #4C545B",
"6 c #4D555D",
"7 c #4D585F",
"8 c #4E585E",
"9 c #4F585F",
"0 c #50585E",
"q c #50585F",
"w c #505A5F",
"e c #4C5660",
"r c #4F5961",
"t c #515960",
"y c #515B61",
"u c #525B62",
"i c #525C62",
"p c #545E63",
"a c #525C64",
"s c #535E64",
"d c #555F64",
"f c #555F65",
"g c #545F67",
"h c #535F68",
"j c #546064",
"k c #556064",
"l c #546065",
"z c #556065",
"x c #556165",
"c c #546167",
"v c #566267",
"b c #566367",
"n c #566368",
"m c #576369",
"M c #576469",
"N c #56656B",
"B c #57656B",
"V c #58656B",
"C c #59676A",
"Z c #59676D",
"A c #59676E",
"S c #586A6B",
"D c #58696C",
"F c #59686E",
"G c #5A6D6C",
"H c #5A6D6F",
"J c #5C6C6E",
"K c #5A6B71",
"L c #5C6B70",
"P c #5D6F71",
"I c #5C6C73",
"U c #5E7373",
"Y c #617475",
"T c #637977",
"R c #627A77",
"E c #62757A",
"W c #637B7B",
"Q c #647C7B",
"! c #667D7F",
"~ c #67827D",
"^ c #67817F",
"/ c #68837F",
"( c #69847F",
") c #698581",
"_ c #6B8683",
"` c #6F8F86",
"' c #71928A",
/* pixels */
"<1ddp,8rzzzdddzzz5#=rzzzzz5O-6Cms6,6r6,-*1,5ddzzzzdy<$@5^`!6*:zz",
"<5zzzd5,yUHSCCmS,--,ipzzzzp5-$-mm65me&#5zi5izzzzzzzzq,@o*4458zzz",
"<1izzzzi65iR`H%-5q51ypzzzzzzdq*$5WI,$,rzzz8szzzzzzzzd1-oO*,zzzzz",
"q65yzzzzzs,,,%*5zziq6yzzzzzzdd<=+---5zzzzzzzzzzzzzzzy1,@&,<6izzz",
"ddsydy6yki65,*-qzzzziqkzy6pzzzy53,*-ijzzyrdzzzzzzzd5,1655555izzz",
"zzzzdy6555pzzi3;5zzzzzzi515izzypjj8,->8z55yzzzzzCi51,rzzziy636zz",
"mzzzdzdsiqzzzzz833ySzzzpi655666dzzzzi,-,655iszzsd55idzzzzzzp5;iz",
"$>8Mzzzzzzzzzzzkz8,,8zzkzzi65ypkzzzzzzi;%,zs6s65y6yddzzzzzzzp6<3",
"&**,ZMmdzzzzzzzzzzr;$,8kzsdddzzzzzzzzzzi,&,K6-6pzjkzzzzzzzzzz8&o",
"6r5&-eZdpzzzzzzzMC:$&5,,smdrdzzzzzzzzzzzi;$,5yzzzikzzzzzzzzz3&o$",
"6izj5-=6FFSmzmSm,--5izi-*<s56dzzzzzzdzjj6-58zzzzz88zzzkzzz5&O$,1",
"6izzzz1=&S/`_E6%-6pzkzi5,#%,5Zzdzzi8ymN56rzzzzzzzijzzzkz8:OO2iq5",
"15idps1<=&-ZP,&,pzzzzzq5,Ooo$,FUMirss,yzzkzzzzzzzj8ikzi5$o-5kzzp",
"11161<<<<,%%*>6jzzzzzzy;+-<<&O*z(_S-,rszkkzzzzzzzi5kk,&.o,kkkkzz",
"q111<<<<>*%=,8zzzzzzzzd;%esmp,oO--#$5szzzzzzzzzzd6>--:,;-kpkzzzz",
"psy1<<1>+%-1yzzzzzzzzz8;&yzzC,oO--#o=5ZZzzkizzzzm3&&2ki5355kzzzz",
"zps115&,5y6yddzzzzzzzs5=*mLy*%-5dz5*OO-U_UhNFFYH5&-qzzpq51=,zzCz",
"FTU,->-izzidzzzzzzdds611&sr;-6yzzdr1,*#$4zse65,--6szzzzzpi5,;5zL",
"*Uz%*iMzzzs6szzzzddye56-o%;yzsizzzzi61,%OO%++%&8zzzzzzzzzzp6<,-5",
"-&%>izzzzdi16zzzzd66N<+&*>ydziizzzzzdq1yr-&%+,dmzzzzqpzzzzzp1,,,",
"z8-&,zzzdzi,6zzimZ,&%%=,<<5yqqzzzzzzzd8sjzi5+O,8zzzzizzzddds1<<<",
"zzz8:-,immy5immUU5&+%+=<565<138zzzzzzzddjzzj5=o%6izzkqppga611<<<",
"zzzzz6--ecM^`/m4&$;1<=&<dddy5>,yzzzzzzzqrzzzzd,*O&3zzi55dy1,ydsy",
"zzzzzzi;O+*45-+O>6ady1&ezdddpy116zzzzzzdq8izzzzs,&O$,k58dd66dzdd",
"zzzzzzz6>*@@@+;yzzzzji8,rzzzzz6$O-6zzkzjy5ydddzzzi5$O*;zddr6zzzz",
"zzzzzzs61*+*>1ddzzzzzzz5,ZzFJp*O*,-&8zji6yddzzzzzzp5&***5d55zzzz",
"zzzzsd64%O=ryydzzzzzzzz,&UEz-o&6izi--:535szdzzzdzi5,yy8-%%1sydzz",
"zpzMys-O$5dddyyzzzzzzzj1&45XO=8zzzzz8,-,,yzdzzzy5qyizzzz5%%,hKMm",
"JJZm,+*,izzzzzy6izzzzzy,$+&=555kzzzzjj6-+,Smdpm,1pdzzzzzzy5-$-eW",
"5h>+$;izzzzzzzzyyizzzd6+.%6zzi5rzzzzji6i6,*rMy613yzzzzzzzddz5-+-",
"-,*+,1szzzzzzzzz6666,*$&+:zjzziiq8zzirijzi-&,6ppiyzzzzzzzzzzz6%-",
"sgy,><mmzzzzzzzzq15%o$,18ii8zzzzipzzpizz61>yddzzzzzzzzzzzzzz5,5i",
"zzzz5;>5mzdddddLm&@%O$<qzz8-iMzdzzzzzzii,58zzzzzi6izzzzzzzzk,,5p",
"zzzpzr=$5sFZL!L5-;,<;%;izzz5545mzzzdFF,zsizzzzzzz55izzzzq5kzzi55",
"dipp651<-#-S_W==qkdq5**izzzzir-,CWWy6zzzzzzzzzzzdy16kpi,$*izzzpq",
"66ypyyiq8r-*=$<yzzddy1;<zzzzzz55,Mr65jzzzzzzzzzzzdy5<-**+X,bzzzk",
"zzzzzzzprzzr=o-yzpzzzi*;qzzzzzzzi=+%,izjzzzzzzzzzzm4$:5k6-+&,MMM",
"zzzzzzzziizi<=%@6izzzz5=5zzzzzzzp&%;%,5MjzzzzzzzM5-->zzpi6-@O&mE",
"zzzzzzzzq155<<<=+%ympz8%68kzzzzzy%;864,,zSzzzmSS,-3ii5555<<,=O%,",
":zzzzzzzp1,,<<<<,*%%,UK+&5izzzzz5>6zzjj,%8KYU5**5ijiy55><<<<<5=o",
"O&;6mzzzzi51,<<<,<,;$==o=55syyi5,qizzzzj3*-Us%>8zzdidz5<<<<<<1<O",
",5=$5mzzzzi1<<<<5<,*OO+oo-he1116izzzzzzzz-%,3,,6dzzzdi1<<<<<<,**",
"zz5---,UHpy,,<<655+o%,%X.OeQW-;izzzzzzz55#,izi55rzzzd6<,<<,-@-qy",
"zzq588,,4K!KCZy>%X*,sd5-% O<,o5dzkzzbjr$&,jjzzzjyzdpy15,,;@ +ydd",
"zzziizz8&>S!Uz*.$5dzzzszq*#+Xo%6FPJm6&-5ibzzzzzzzzzzii86&o+$$LFd",
"zzzp8zzzd,+--o+*1zzzzzzzzz8,+XX$,QU=$>yzzzzzzzzzzzzzzr,&+*5s11YU",
"zzp65szzZ1%%=,115yddzzzzzzzzr;Xo$*&%8zzzzzzzzzzzzzz85-&#O5yz5o*5",
"pp51,qz8=oO,esdq<155yzzzzzzzzi$$,>&&5zzzzzzzzzzzmzi%*ipi;=-Ls$,q",
"FmmFmc,+X$5sdzzs,5555qzzzzzz,;3izzi5*,5msysszzmUU-%4szzzy>%5>=sy",
"UE_(C%o$-5zzzsy65idzpiizzz8-.-zzzzzzi,;,smzSCjH8--,izzzi1<,=@+>Z",
"%&&$o$;66ydzdsysqzzzzsidr,#-$5zzzzzzzzi,--s_W,$,,1yzzzd6<<561;O=",
"o+%#&ydddzdzdzddzzzpmMy6&+%r*6zzzzzzzizzs,=,->5zdypzzd815yddds,=",
"=%@-5dddzzzzzzzzzzi,+&,65,&#,zzzzzzzzyizzzs6=-yizzzy6iydddmdzdyy",
"s,%$>yddzzzzzzzzzz5&$;ppzzy-=5izzzzzzzzzzzzzi,&,sz856zzzddddzsdz",
"se1;**<mzzzzzdzzz5,;,15izzzs6%*yzzzzzzrjzzzzzd5--,36dzzzdzddy65y",
"sds611;,rzCzzZmr1qyyq556zzzi8,-=3MMzzy6szzzzzdsi5;-,yiizzdds6,<1",
"zzzzszd,$>LWZ4>,izzzzkpzpq5<<<<&X-,zj61rzzzzzzzyiiy,>1NmMsrr1sh1",
"zzzzzzdd6,*854yzzzzzzzzzkpq5<<=$-5,$,5,6zzzzzzzi55i,+o&s!_r,%=41",
"zzzzzzdmz:%5izzzzzzzzzzzzzzq;%-5izi;;-51zjssjds665%XO&$+--O+,8dd",
"zzzzzzdy:&4zzzzzzzzzzzzzzzq$=6pzzz8yi5=%,rZMPUZr,O$-8s6;&XX&yids",
"dzzMZm>*=1qiizzzzzzzkkqwy*-,izzzzp6yzj6>$=M_'W6OO-rzzzzz8&o+1rea",
"KLYm,*=5656656q8ikizkw5-$&qzzzzzzy6zzzzi8;+,m%O&5rzzzzzzzy1*%+,a",
"MF:#$,yzdzzziyyqi858Uk*OX-wzzzzzp56zzzzzm6*+%=5szzzzzzzzzzdy5&o+",
"--O.=pFmdzzzzzzzzi*O$2q5:&-qzdzzp6pzzzzp5%X&4558zzzzzzzzzyyss6%o"
};
